<?xml version="1.0" encoding="UTF-8"?>
<svg version="1.1" xmlns="http://www.w3.org/2000/svg" width="1254" height="1254">
<path d="M0 0 C413.82 0 827.64 0 1254 0 C1254 413.82 1254 827.64 1254 1254 C840.18 1254 426.36 1254 0 1254 C0 840.18 0 426.36 0 0 Z " fill="#EDEFF4" transform="translate(0,0)"/>
<path d="M0 0 C1.72600433 -0.01052147 1.72600433 -0.01052147 3.48687744 -0.02125549 C7.19311455 -0.03871419 10.89919199 -0.0451106 14.60546875 -0.046875 C15.86994843 -0.04754974 17.1344281 -0.04822449 18.43722534 -0.04891968 C36.78652493 -0.03333152 54.63073839 0.44897186 72.79296875 3.203125 C75.28772427 3.54713725 77.78251762 3.89087523 80.27734375 4.234375 C117.17903048 9.54438635 153.65349265 19.72729888 187.60253906 35.21826172 C189.67065617 36.14813069 191.75129131 37.03056544 193.84765625 37.89453125 C221.35802918 49.30160665 248.2777096 65.81948037 271.54296875 84.4140625 C273.77842264 86.19155882 276.0503164 87.91575537 278.32885742 89.63745117 C298.31570968 104.80264151 317.88459763 122.10955513 334.13671875 141.26953125 C336.05282452 143.50649435 338.04809731 145.66116078 340.04296875 147.828125 C345.62918268 154.02872794 350.72102483 160.58142043 355.79296875 167.203125 C356.53450195 168.16726318 356.53450195 168.16726318 357.29101562 169.15087891 C364.52868769 178.58453706 371.34647944 188.2132877 377.79296875 198.203125 C378.38343994 199.10587158 378.38343994 199.10587158 378.98583984 200.02685547 C394.05873037 223.11396181 407.86689512 248.29066244 416.5390625 274.51953125 C417.62825201 277.71923749 418.85472325 280.74486259 420.23046875 283.828125 C425.60029351 296.39800418 428.92188841 309.93571681 432.60546875 323.078125 C432.80011719 323.77180176 432.99476563 324.46547852 433.1953125 325.18017578 C435.37558057 333.10092079 436.98036416 341.05025717 438.29296875 349.15917969 C438.76228419 352.01632074 439.26981654 354.863232 439.79296875 357.7109375 C443.94356302 380.72502228 445.15138487 403.67338885 445.10864258 427.03442383 C445.10547292 430.63588544 445.12911595 434.23652876 445.15429688 437.83789062 C445.21113378 458.65495783 443.53138156 479.3242803 439.48046875 499.765625 C439.16190918 501.41510132 439.16190918 501.41510132 438.83691406 503.09790039 C438.17446841 506.47046026 437.48878297 509.83730298 436.79296875 513.203125 C436.5727002 514.27916992 436.35243164 515.35521484 436.12548828 516.46386719 C432.73889317 532.74018268 428.06063282 548.41514993 422.79003906 564.17333984 C421.698043 567.4915747 420.68394105 570.82694464 419.69091797 574.17578125 C417.60153245 581.18803089 414.92667514 587.65461885 411.73095703 594.2265625 C410.62990383 596.54674124 409.58302755 598.88795585 408.5390625 601.234375 C389.71421549 643.5124534 364.75332179 681.55702959 333.26953125 715.5078125 C331.26950523 717.68449697 329.33098569 719.88835382 327.41796875 722.140625 C319.9042031 730.7950346 311.54758773 738.81933604 302.79296875 746.203125 C301.76851627 747.08997473 300.74518115 747.978116 299.72265625 748.8671875 C263.60770887 780.19811713 223.03231385 806.00427387 179.18383789 825.1550293 C176.8163068 826.1928942 174.46123577 827.25607241 172.10546875 828.3203125 C168.36967011 829.98180843 164.59379635 831.42166603 160.73046875 832.765625 C157.14931557 834.01677244 153.57709314 835.27743572 150.03125 836.625 C128.76614971 844.6181565 107.00671817 849.69874807 84.79296875 854.203125 C83.84260742 854.39777344 82.89224609 854.59242188 81.91308594 854.79296875 C45.24104294 862.08219619 1.09377501 864.6039487 -35.45117188 856.72875977 C-38.7556567 856.09848374 -42.06335945 855.69429023 -45.40234375 855.28515625 C-53.09220852 854.29325835 -60.54783617 852.70163533 -68.08203125 850.890625 C-68.73345093 850.73594757 -69.38487061 850.58127014 -70.05603027 850.42190552 C-80.21213872 848.01010127 -90.27278709 845.4127646 -100.20703125 842.203125 C-101.26325684 841.86547119 -101.26325684 841.86547119 -102.34082031 841.52099609 C-111.0850712 838.71213171 -119.75758386 835.70062303 -128.39453125 832.578125 C-129.56121338 832.16264404 -129.56121338 832.16264404 -130.75146484 831.73876953 C-135.56919624 829.97174492 -139.78769508 827.80651576 -144.20703125 825.203125 C-145.6483918 824.57903074 -147.10624365 823.99077253 -148.58203125 823.453125 C-153.49548246 821.55285342 -158.2537444 819.37963986 -163.01953125 817.140625 C-163.74897949 816.79999023 -164.47842773 816.45935547 -165.22998047 816.10839844 C-169.02444934 814.31464952 -172.61937638 812.38765889 -176.20703125 810.203125 C-178.00996082 809.26511435 -179.81337349 808.32797605 -181.62231445 807.40161133 C-202.79408078 796.49960213 -223.44419073 783.3740132 -241.8046875 768.17578125 C-243.66628926 766.64714891 -245.54235737 765.16434233 -247.453125 763.69921875 C-254.66018471 758.16108875 -261.47143165 752.37190917 -268.07421875 746.125 C-270.30671136 744.01508123 -272.59824713 741.99594363 -274.9296875 739.99609375 C-280.10923565 735.48865364 -284.92679512 730.6291009 -289.76953125 725.765625 C-290.67638672 724.86263672 -291.58324219 723.95964844 -292.51757812 723.02929688 C-297.09255358 718.44768621 -301.53593031 713.8139571 -305.75170898 708.89916992 C-307.60150582 706.74340099 -309.52981396 704.66467915 -311.45703125 702.578125 C-346.97917509 663.09574215 -371.37858521 614.87589022 -389.26953125 565.265625 C-389.71619141 564.04166016 -390.16285156 562.81769531 -390.62304688 561.55664062 C-392.69243071 555.80629004 -394.65631821 550.18870692 -395.74780273 544.16577148 C-396.16972847 542.11846212 -396.16972847 542.11846212 -397.14526367 539.95996094 C-398.50234474 536.43635565 -399.25562159 532.84756082 -400.01171875 529.16015625 C-400.25789696 527.97654762 -400.25789696 527.97654762 -400.50904846 526.76902771 C-401.04133188 524.18610838 -401.56322916 521.60128445 -402.08203125 519.015625 C-402.34948654 517.68996521 -402.34948654 517.68996521 -402.62234497 516.33752441 C-406.14810553 498.72281751 -408.56299037 481.08901907 -410.20703125 463.203125 C-410.29217987 462.31396393 -410.37732849 461.42480286 -410.46505737 460.50869751 C-411.11297122 453.37221198 -411.38081547 446.29689917 -411.41015625 439.1328125 C-411.41585632 438.01286896 -411.4215564 436.89292542 -411.4274292 435.73904419 C-411.43681541 433.37763391 -411.44338755 431.01621091 -411.44726562 428.65478516 C-411.45687461 425.13549265 -411.48792061 421.61680991 -411.51953125 418.09765625 C-411.59264342 402.25978402 -410.34446259 386.88698586 -408.20703125 371.203125 C-407.85222714 368.46239058 -407.50121287 365.72119368 -407.15084839 362.97988892 C-404.83952787 345.56788199 -401.23741712 328.33830059 -395.94335938 311.58886719 C-395.10380803 308.86867631 -394.31910036 306.1351634 -393.53515625 303.3984375 C-378.73510022 252.47414703 -352.66185555 202.68606607 -318.20703125 162.203125 C-317.31175326 161.13473988 -316.41725935 160.06569739 -315.5234375 158.99609375 C-310.53660488 153.04474045 -305.46216926 147.19152352 -300.234375 141.44921875 C-298.45672137 139.47975664 -296.73492988 137.47652538 -295.01953125 135.453125 C-287.69287265 127.04800964 -279.6174518 119.02528458 -271.10546875 111.82421875 C-268.87803092 109.9221885 -266.73680154 107.9370478 -264.58203125 105.953125 C-258.92849413 100.85368647 -252.96987055 96.19483407 -246.94335938 91.54980469 C-245.33815404 90.3048226 -243.74841288 89.03997035 -242.16015625 87.7734375 C-227.35010403 76.07119416 -211.2961484 66.00254427 -195.10253906 56.34033203 C-193.46934674 55.36050078 -191.84863501 54.35992103 -190.23046875 53.35546875 C-157.2938705 33.2802799 -119.37928232 20.6186355 -82.20703125 11.203125 C-81.24619629 10.95788086 -80.28536133 10.71263672 -79.29541016 10.45996094 C-65.89436291 7.08446506 -52.55363158 5.03851837 -38.82714844 3.50732422 C-34.33644712 2.9859476 -29.87169772 2.3121543 -25.40234375 1.6328125 C-16.91609084 0.49162935 -8.56197283 0.03480769 0 0 Z " fill="#010101" transform="translate(610.20703125,170.796875)"/>
<path d="M0 0 C4.31160433 1.60911549 6.88398827 4.91942896 9.875 8.25 C17.40675683 16.45096815 25.23976168 24.32944309 33.125 32.1875 C33.76194794 32.82282654 34.39889587 33.45815308 35.05514526 34.11273193 C39.69992244 38.74534829 44.34941735 43.37321266 49 48 C53.68296426 52.65918648 58.36417152 57.32011317 63.04119873 61.98526001 C64.89079023 63.82845185 66.74340024 65.66857031 68.59619141 67.50854492 C69.740058 68.64877618 70.88378285 69.78914966 72.02734375 70.9296875 C72.53030472 71.42748215 73.03326569 71.92527679 73.5514679 72.43815613 C76.25772724 75.14402161 78.8246137 77.92290794 81.32270813 80.82270813 C85.28353587 85.39133202 89.52136703 89.64701492 93.80932617 93.90698242 C94.6622374 94.75843338 95.51514862 95.60988434 96.39390564 96.48713684 C98.7101303 98.79859453 101.02853087 101.10784315 103.34779143 103.41625381 C105.78503123 105.84343828 108.21897162 108.27392629 110.65315247 110.70417786 C116.82829236 116.86827157 123.00767734 123.02810155 129.1875 129.1875 C135.87160719 135.84954326 142.55495513 142.51233828 149.23343831 149.18002015 C151.65201538 151.5944434 154.07165841 154.00777825 156.49379539 156.4186306 C159.19104829 159.10392635 161.88525767 161.79224172 164.57885742 164.48120117 C165.37634399 165.27352142 166.17383057 166.06584167 166.9954834 166.88217163 C170.56463719 170.45098348 173.88934246 174.01685394 177 178 C178.4582639 179.19901698 179.91756118 180.39689623 181.38938904 181.57922363 C183.13660462 183.12050372 184.58104715 184.76350267 186.08227539 186.54492188 C190.44562064 191.58942041 195.14298873 196.26829503 199.87109375 200.96875 C200.793423 201.88966431 201.71575226 202.81057861 202.66603088 203.75939941 C205.09188477 206.18147554 207.52072852 208.60053079 209.95025635 211.0189209 C212.43939116 213.49773837 214.92561895 215.97946797 217.41210938 218.4609375 C222.27193458 223.31010924 227.13493178 228.15608863 232 233 C224.5737159 249.1582185 197.89057071 262.9736372 183 272 C182.40316406 272.36834961 181.80632812 272.73669922 181.19140625 273.11621094 C167.54977625 281.51815041 153.27374421 288.74636041 139 296 C137.91960449 296.55405518 136.83920898 297.10811035 135.72607422 297.67895508 C134.68338379 298.20900146 133.64069336 298.73904785 132.56640625 299.28515625 C131.6441626 299.75574463 130.72191895 300.22633301 129.77172852 300.71118164 C125.00081095 302.92959738 120.00945422 304.42108893 115 306 C113.70382111 306.46682305 112.41155621 306.94477635 111.125 307.4375 C110.485625 307.67855469 109.84625 307.91960937 109.1875 308.16796875 C107.55931412 308.78726088 105.93488492 309.41644761 104.3125 310.05078125 C87.16385404 316.50253898 69.09792333 321.16346014 51 324 C49.15535156 324.30550781 49.15535156 324.30550781 47.2734375 324.6171875 C40.43301035 325.68646198 33.91393103 326.10104046 27 326 C26.7683313 325.07779663 26.7683313 325.07779663 26.53198242 324.13696289 C15.9815978 282.5864947 0.6482845 243.1122633 -19 205 C-19.36915527 204.27570801 -19.73831055 203.55141602 -20.11865234 202.80517578 C-33.98202879 175.63756946 -50.29520059 149.77066633 -69.41113281 125.98583984 C-70.93405829 124.08241701 -72.43596138 122.16466936 -73.9296875 120.23828125 C-80.07998307 112.31142458 -86.46358646 104.61106567 -93 97 C-91.3837447 92.91336579 -88.44804688 90.21049134 -85.36328125 87.203125 C-84.80561569 86.65066101 -84.24795013 86.09819702 -83.67338562 85.5289917 C-81.89112195 83.76449486 -80.10233665 82.00681205 -78.3125 80.25 C-76.54133427 78.50667898 -74.77173379 76.76184233 -73.00517273 75.01385498 C-71.90827179 73.92896408 -70.80871422 72.84674924 -69.70588684 71.7678833 C-66.95580994 69.05277929 -64.34932212 66.27707492 -61.83740234 63.33959961 C-57.4501211 58.27103545 -52.69263135 53.58029005 -47.93715858 48.86199379 C-46.26540475 47.20317855 -44.59694853 45.54110623 -42.929245 43.8782196 C-39.39315753 40.35346712 -35.85312363 36.8326951 -32.3125 33.3125 C-28.19522562 29.21890412 -24.0796274 25.12365111 -19.96822166 21.02416039 C-18.33066156 19.39304398 -16.69010265 17.76498626 -15.0493927 16.13703918 C-14.04099939 15.13227994 -13.03274707 14.12737916 -12.0246582 13.12231445 C-11.14864456 12.25153763 -10.27263092 11.3807608 -9.37007141 10.4835968 C-7.08556564 8.0896642 -5.03860993 5.60386724 -3 3 C-2.01769502 1.9826127 -1.02530403 0.97403883 0 0 Z " fill="#ECEEF3" transform="translate(631,640)"/>
<path d="M0 0 C2.38384567 0.85085891 3.57997268 1.8329415 5.38574219 3.59350586 C5.99329346 4.17592041 6.60084473 4.75833496 7.22680664 5.35839844 C7.86577881 5.98254639 8.50475098 6.60669434 9.16308594 7.24975586 C14.46843352 12.32384964 19.83719251 17.10875729 25.57714844 21.68725586 C28.07359798 23.72769759 30.42778442 25.86662654 32.78808594 28.06225586 C38.88214641 33.61462207 45.52140582 38.40153306 52.14599609 43.29174805 C54.99994774 45.42062629 57.79665878 47.61787809 60.60058594 49.81225586 C88.09690415 71.10946599 118.81312701 88.43177828 149.98632812 103.71118164 C151.40574044 104.40843106 152.82304155 105.10999355 154.23828125 105.81567383 C172.83402161 115.0719428 192.28451051 122.53679492 212.10058594 128.74975586 C212.33485514 137.23333773 211.67087109 145.46175407 210.60058594 153.87475586 C210.51677673 154.53406097 210.43296753 155.19336609 210.34661865 155.87265015 C207.51872647 177.61770727 202.26431997 199.26219589 194.76660156 219.87036133 C194.09043703 221.77839454 193.47078792 223.69683454 192.86621094 225.62866211 C190.22127269 234.0014374 186.92168747 241.84061692 183.08056641 249.71166992 C182.0497731 251.85543239 181.05843166 254.01436663 180.07324219 256.17944336 C168.8592086 280.67359253 154.78247705 303.93815299 138.27978516 325.22583008 C136.86655599 327.05220202 135.47945276 328.89733882 134.10058594 330.74975586 C130.41520284 329.20255953 128.06912101 326.96597446 125.25952148 324.15161133 C124.79225647 323.68624466 124.32499146 323.22087799 123.84356689 322.7414093 C122.30322034 321.2047603 120.77018497 319.66103762 119.23730469 318.11694336 C118.16156438 317.04000959 117.08545265 315.96344671 116.00898743 314.88723755 C113.75230891 312.62899543 111.49902565 310.36743749 109.24829102 308.10327148 C106.38218163 305.22026454 103.50962701 302.34379076 100.63467693 299.46960258 C98.40971416 297.24436585 96.1873831 295.01651611 93.96589088 292.78781509 C92.90886808 291.72763785 91.851263 290.66804079 90.79303551 289.60906601 C81.52777833 280.33010882 81.52777833 280.33010882 77.82641602 275.96899414 C72.67792446 269.96898256 66.95499333 264.4952564 61.35150146 258.92550659 C59.18747553 256.77437249 57.02670116 254.62001797 54.86669922 252.46484375 C50.28080872 247.89031981 45.69099607 243.31974388 41.10058594 238.74975586 C35.77659491 233.44945054 30.45427089 228.14749328 25.13616943 222.84127808 C23.01845688 220.72999661 20.89773046 218.62177578 18.77685547 216.51367188 C7.1305235 204.9103549 7.1305235 204.9103549 2.35302734 199.16992188 C0.99408516 197.54670394 0.99408516 197.54670394 -1.39941406 195.74975586 C-3.51541062 194.05695861 -4.9409795 192.58570231 -6.65332031 190.53100586 C-11.88808375 184.4895384 -17.61132416 178.92744503 -23.27810669 173.29589844 C-25.37492622 171.21197753 -27.46848773 169.12483077 -29.5612793 167.03686523 C-34.00450889 162.60499892 -38.45166168 158.17708256 -42.89941406 153.74975586 C-48.05819571 148.6146652 -53.21530658 143.47791935 -58.36819458 138.33691406 C-60.41942855 136.29210823 -62.47367697 134.25036522 -64.52807617 132.20874023 C-70.05542762 126.70287857 -75.54744292 121.22765322 -80.60061646 115.27563477 C-82.26577882 113.31933602 -84.04016307 111.49520817 -85.86425781 109.68725586 C-86.51845703 109.0362793 -87.17265625 108.38530273 -87.84667969 107.71459961 C-88.50345703 107.06620117 -89.16023437 106.41780273 -89.83691406 105.74975586 C-90.52076172 105.07041992 -91.20460938 104.39108398 -91.90917969 103.69116211 C-93.57028565 102.04167227 -95.23369919 100.39458906 -96.89941406 98.74975586 C-95.55785775 95.76043422 -94.08188529 93.69008535 -91.75415039 91.39331055 C-91.11621048 90.75874939 -90.47827057 90.12418823 -89.82099915 89.47039795 C-89.13144638 88.79430481 -88.44189362 88.11821167 -87.73144531 87.42163086 C-86.6618885 86.3598764 -86.6618885 86.3598764 -85.57072449 85.27667236 C-83.28915212 83.01289814 -81.00103065 80.75589915 -78.71191406 78.49975586 C-76.44147531 76.2570908 -74.17256477 74.01293427 -71.90666199 71.76568604 C-70.49812375 70.36923185 -69.0869228 68.97545619 -67.67256165 67.5848999 C-64.48071702 64.42494398 -61.40103999 61.22776659 -58.47045898 57.82299805 C-54.50923317 53.2307839 -50.23960522 48.98246896 -45.93066406 44.71850586 C-45.09152466 43.88315308 -44.25238525 43.04780029 -43.38781738 42.18713379 C-39.83086886 38.64639457 -36.26795287 35.11168262 -32.70556641 31.57641602 C-30.09101242 28.98003526 -27.47953222 26.3805902 -24.86816406 23.78100586 C-24.07317505 22.99431519 -23.27818604 22.20762451 -22.45910645 21.39709473 C-17.7243589 16.68298886 -13.23674804 11.83088875 -8.89941406 6.74975586 C-7.68851596 5.37922901 -6.46504541 4.01927683 -5.21191406 2.68725586 C-4.67179688 2.0981543 -4.13167969 1.50905273 -3.57519531 0.90209961 C-1.89941406 -0.25024414 -1.89941406 -0.25024414 0 0 Z " fill="#ECEEF3" transform="translate(775.8994140625,494.250244140625)"/>
<path d="M0 0 C2.79192366 1.27467043 4.84081631 2.59153969 7.00512695 4.76220703 C7.56283279 5.31683624 8.12053864 5.87146545 8.69514465 6.44290161 C9.28687973 7.0418222 9.87861481 7.6407428 10.48828125 8.2578125 C11.42041695 9.19063553 11.42041695 9.19063553 12.37138367 10.14230347 C13.68575416 11.45969214 14.99769625 12.77950751 16.30737305 14.1015625 C18.28976904 16.10206146 20.27989518 18.09459513 22.27148438 20.0859375 C23.55255301 21.37192812 24.83316624 22.6583726 26.11328125 23.9453125 C26.69894363 24.53208771 27.28460602 25.11886292 27.88801575 25.72341919 C30.75197196 28.61959126 33.50647456 31.5595701 36.15112305 34.65771484 C40.7411986 39.95659909 45.73989837 44.85129619 50.71192932 49.78709412 C52.50632335 51.56855248 54.29742409 53.35326638 56.08776855 55.13879395 C59.88902275 58.92870266 63.69420588 62.71465097 67.5 66.5 C71.91534185 70.89162221 76.32899248 75.28491726 80.73841858 79.68247986 C82.49049796 81.4281471 84.24559477 83.17073952 86.00085449 84.91320801 C94.82555162 93.69779158 94.82555162 93.69779158 98.45898438 97.95898438 C103.08700073 103.37732946 108.21501811 108.325006 113.26751709 113.34268188 C115.16271893 115.22496176 117.05464053 117.11048618 118.94580078 118.99682617 C122.96104704 123.00072039 126.98022013 127.00065806 131 131 C135.66315461 135.63944554 140.32462555 140.28055741 144.98187256 144.92593384 C146.83367034 146.77131359 148.68848449 148.61362294 150.54345703 150.45581055 C155.61215394 155.50270391 160.59090268 160.56276577 165.23428345 166.00942993 C168.75195322 169.97505406 172.5590241 173.66623459 176.32205772 177.39722252 C177.8594035 178.92160686 179.39342976 180.44926654 180.92671204 181.97773743 C184.1774755 185.21717759 187.43219033 188.45262919 190.6875 191.6875 C194.47435716 195.45066491 198.25952714 199.21549624 202.04050636 202.98456764 C203.54510931 204.48273385 205.05271131 205.97783548 206.56047058 207.4728241 C207.47854996 208.38760025 208.39662933 209.3023764 209.3425293 210.24487305 C210.14748337 211.0445903 210.95243744 211.84430756 211.78178406 212.66825867 C214.01052514 215.0110638 216.0007214 217.46067326 218 220 C221.4556234 223.63749832 225.11623708 226.83879762 229 230 C227.49158187 233.55480003 225.42366339 235.79559622 222.67578125 238.484375 C221.37930664 239.76441406 221.37930664 239.76441406 220.05664062 241.0703125 C218.69829102 242.39675781 218.69829102 242.39675781 217.3125 243.75 C215.53530838 245.49229404 213.76052859 247.23705193 211.98828125 248.984375 C211.19977783 249.75491211 210.41127441 250.52544922 209.59887695 251.31933594 C207.58144148 253.40026045 205.68904216 255.49872149 203.8034668 257.69433594 C199.48782013 262.66755754 194.83223375 267.27423634 190.15625 271.90625 C188.7380835 273.31862932 187.31991993 274.73101161 185.90192413 276.14356232 C182.93933555 279.09312024 179.97215979 282.03806312 177.00579834 284.98382568 C174.55418969 287.41877106 172.10362669 289.85474816 169.65563965 292.29333496 C167.82931571 294.11220613 166.00074639 295.92882652 164.16955566 297.74279785 C159.75627447 302.13867803 155.50510513 306.60007005 151.4468689 311.3260498 C149.78907585 313.244028 148.05487467 315.05993366 146.25390625 316.84375 C145.64482422 317.44960938 145.03574219 318.05546875 144.40820312 318.6796875 C143.79912109 319.28039062 143.19003906 319.88109375 142.5625 320.5 C141.92634766 321.13164063 141.29019531 321.76328125 140.63476562 322.4140625 C139.09217194 323.94505774 137.54642686 325.47287667 136 327 C133.08422898 325.58831242 130.71820179 324.10957418 128.25 322 C127.63640625 321.484375 127.0228125 320.96875 126.390625 320.4375 C125 319 125 319 125 317 C124.47535156 316.79503906 123.95070313 316.59007812 123.41015625 316.37890625 C119.94227946 314.39485356 117.30770849 311.6947297 114.4375 308.9375 C109.3416053 304.12309156 104.15246503 299.53527592 98.67578125 295.15234375 C95.92737908 292.94158522 93.2476202 290.66204644 90.5625 288.375 C61.50877531 264.15731464 29.48718644 243.49940406 -4 226 C-4.70737305 225.6297168 -5.41474609 225.25943359 -6.14355469 224.87792969 C-10.72182788 222.49847645 -15.3457545 220.22664065 -20 218 C-21.15677246 217.44046631 -21.15677246 217.44046631 -22.33691406 216.86962891 C-43.40545544 206.7413191 -65.5410741 198.493715 -88 192 C-84.82312962 121.88975722 -44.0835407 52.34920458 0 0 Z " fill="#ECEEF3" transform="translate(357,361)"/>
<path d="M0 0 C0.30075439 0.9686499 0.60150879 1.9372998 0.91137695 2.93530273 C8.21728885 26.42101021 15.52916615 49.69223673 26 72 C26.4758252 73.02561035 26.95165039 74.0512207 27.44189453 75.10791016 C37.4351541 96.59455716 48.56949838 116.47980247 62 136 C62.58861816 136.85948242 63.17723633 137.71896484 63.78369141 138.60449219 C77.66809554 158.83835442 92.39093527 178.7089018 108.99609375 196.8125 C111.57942342 199.63250899 114.08504968 202.5165585 116.58984375 205.40625 C117.68415145 206.6430299 118.83228131 207.83228131 120 209 C119.93743235 213.41382158 116.34063647 216.04949382 113.39794922 218.92675781 C112.81407944 219.50945938 112.23020966 220.09216095 111.62864685 220.69252014 C109.69419927 222.61977382 107.74945097 224.53628621 105.8046875 226.453125 C104.45452453 227.79514756 103.10509849 229.13791188 101.75637817 230.48138428 C98.19800502 234.02262181 94.63117534 237.55521271 91.06207275 241.08563232 C85.36892528 246.71967643 79.68819445 252.36622986 74.0083046 258.01363373 C72.03091258 259.97717125 70.04968852 261.93677431 68.06784058 263.89581299 C62.69218215 269.22165033 57.37802993 274.52278291 52.47558594 280.29486084 C49.93165528 283.23454445 47.17058408 285.95276794 44.41015625 288.6875 C43.82076767 289.27547363 43.23137909 289.86344727 42.62413025 290.46923828 C40.77262382 292.31522361 38.91764183 294.15766892 37.0625 296 C35.79338627 297.2640885 34.52450411 298.52840956 33.25585938 299.79296875 C30.1732368 302.86466724 27.08749572 305.93320008 24 309 C16.58913382 302.8098519 16.58913382 302.8098519 13.875 299.4375 C11.43095299 296.42221123 8.75335959 293.73635252 6 291 C5.16566437 290.16788498 4.33132874 289.33576996 3.47171021 288.47843933 C2.58015228 287.58989761 1.68859436 286.7013559 0.77001953 285.78588867 C-4.28478429 280.74743266 -9.33703808 275.7064278 -14.38784599 270.66396618 C-17.43383292 267.62319539 -20.48074847 264.58336727 -23.52978516 261.5456543 C-26.49444729 258.59192604 -29.45659792 255.63569977 -32.41708755 252.67778969 C-33.53800943 251.55870009 -34.65980355 250.44048338 -35.78252792 249.32320213 C-45.63912334 239.51251804 -45.63912334 239.51251804 -49.41796875 235.08203125 C-54.65610393 228.96134412 -60.49044399 223.38722474 -66.1953125 217.70703125 C-67.47392399 216.43028922 -68.75231163 215.15332298 -70.03048706 213.87614441 C-73.37671135 210.533714 -76.72592589 207.19429602 -80.07580566 203.85552979 C-83.48073644 200.46084199 -86.88283106 197.06331451 -90.28515625 193.66601562 C-95.77983314 188.18009515 -101.27619456 182.69586954 -106.77490234 177.21398926 C-108.18351607 175.80957471 -109.5917662 174.40479551 -111 173 C-111.85964859 172.15091064 -112.71929718 171.30182129 -113.60499573 170.42700195 C-115.85463725 168.14730482 -117.98580711 165.80733737 -120.10083008 163.40307617 C-124.8362998 158.11368893 -129.80366306 153.07941322 -134.84277916 148.08205605 C-136.43127618 146.50658932 -138.01639377 144.92778617 -139.6007843 143.34819031 C-142.96017404 140.00009171 -146.32352947 136.65599523 -149.6875 133.3125 C-153.60230382 129.42144258 -157.51538507 125.52868305 -161.42426491 121.63167381 C-162.9741914 120.08815349 -164.52713152 118.54771198 -166.08024597 117.00740051 C-170.94309699 112.16954164 -175.61505518 107.277448 -180 102 C-181.6441091 100.31107702 -183.31398359 98.64708962 -185 97 C-186.47664857 95.52612904 -187.9517469 94.05070421 -189.42578125 92.57421875 C-190.22177734 91.77822266 -191.01777344 90.98222656 -191.83789062 90.16210938 C-195.55859375 86.44140625 -199.27929688 82.72070312 -203 79 C-187.3353122 63.05903905 -167.9283342 50.98396822 -148.42089844 40.33007812 C-146.22652681 39.12445725 -144.05305232 37.88896481 -141.8828125 36.640625 C-114.87129816 21.379788 -84.1190976 12.66504053 -54 6 C-53.27184082 5.83516113 -52.54368164 5.67032227 -51.79345703 5.50048828 C-42.48802964 3.42457236 -33.09170493 2.35660838 -23.625 1.3125 C-22.43543701 1.18077393 -21.24587402 1.04904785 -20.02026367 0.91333008 C-13.31874911 0.21540252 -6.73749635 -0.18196439 0 0 Z " fill="#ECEEF3" transform="translate(609,236)"/>
<path d="M0 0 C2.58693475 0.54865085 5.16863877 1.11361986 7.75 1.6875 C8.81541016 1.91083008 8.81541016 1.91083008 9.90234375 2.13867188 C16.61090858 3.65255155 22.71317412 6.25134807 29 9 C30.02254883 9.43530029 31.04509766 9.87060059 32.09863281 10.3190918 C70.33963418 26.62600276 105.47879354 48.27175916 137.4453125 74.87890625 C139.1331803 76.28030108 140.83623904 77.66362089 142.5546875 79.02734375 C149.80339343 84.80264803 156.50051466 91.0761272 163.2265625 97.4453125 C167.40078118 101.39423602 171.66346941 105.22962757 176 109 C175.14313962 113.69190998 172.21817638 116.07769708 168.875 119.25 C165.39094974 122.59694643 162.00122326 125.94284481 158.86962891 129.62597656 C154.66184877 134.46309027 150.14779267 138.95976438 145.59375 143.46875 C144.71021851 144.34849487 143.82668701 145.22823975 142.91638184 146.13464355 C139.6402768 149.39656945 136.3596502 152.65392564 133.07867432 155.91094971 C129.85169462 159.1148726 126.6286192 162.32269116 123.40625 165.53125 C122.56751343 166.36168823 121.72877686 167.19212646 120.86462402 168.04772949 C116.58852778 172.30611933 112.49020805 176.6406648 108.5562439 181.2166748 C106.38121587 183.7090748 104.0684706 186.04375593 101.72265625 188.375 C100.79775391 189.29667969 99.87285156 190.21835937 98.91992188 191.16796875 C97.96750432 192.11203607 97.01502969 193.05604582 96.0625 194 C95.0824469 194.97502386 94.1026276 195.9502828 93.12304688 196.92578125 C90.75097687 199.28616618 88.3765914 201.64416905 86 204 C59.99102999 193.36962098 37.6132285 136.35178292 27.04150391 111.37792969 C14.59070618 81.55953361 5.67153421 51.13576233 1.1875 19.0625 C1.00151245 17.74088867 1.00151245 17.74088867 0.81176758 16.39257812 C0.09469569 10.88428232 -0.10649065 5.55432829 0 0 Z " fill="#ECEEF3" transform="translate(266,627)"/>
<path d="M0 0 C1.70703125 1.84375 1.70703125 1.84375 3.8125 4.5 C4.616875 5.50804687 5.42125 6.51609375 6.25 7.5546875 C6.69085938 8.10995117 7.13171875 8.66521484 7.5859375 9.23730469 C9.05882963 11.07333389 10.55702686 12.88592197 12.0625 14.6953125 C19.88840687 24.12995072 27.13555068 33.84568593 34 44 C34.57476074 44.84916992 35.14952148 45.69833984 35.74169922 46.57324219 C49.38889106 66.85514783 61.97605816 87.70427004 72.06640625 109.9921875 C73.44735624 112.96209668 74.98047126 115.84908149 76.5 118.75 C83.19873375 132.06993587 88.18983391 146.26261328 92.9375 160.375 C93.21980469 161.21168213 93.50210938 162.04836426 93.79296875 162.91040039 C95.53862262 168.22384132 96.86406198 173.52335194 98 179 C90.61878763 179.39938424 84.19159332 178.54729961 77.03515625 176.73046875 C74.42115718 176.10135958 71.91813864 175.66615645 69.25 175.375 C66 175 66 175 65 174 C62.80808082 173.55285453 60.60842654 173.14353181 58.40625 172.75 C50.85657927 171.31870542 43.69341989 169.16390289 36.43554688 166.66601562 C34.47579047 165.99166958 32.51187685 165.33076286 30.546875 164.671875 C24.59118032 162.65815682 18.76221517 160.52642858 13 158 C11.91440796 157.53074097 11.91440796 157.53074097 10.80688477 157.05200195 C0.03602626 152.35375939 -10.58809835 147.45136176 -21 142 C-21.69528809 141.63712891 -22.39057617 141.27425781 -23.10693359 140.90039062 C-35.982988 134.11952717 -48.02556702 126.25271624 -60 118 C-60.68642578 117.53029785 -61.37285156 117.0605957 -62.08007812 116.57666016 C-72.76466881 109.24264752 -82.92273048 101.27713601 -92 92 C-91.35933594 91.3709375 -90.71867187 90.741875 -90.05859375 90.09375 C-89.19363281 89.2378125 -88.32867187 88.381875 -87.4375 87.5 C-86.59058594 86.6646875 -85.74367188 85.829375 -84.87109375 84.96875 C-82.83133866 82.90697626 -80.93475666 80.76784598 -79.05883789 78.55664062 C-74.55559311 73.39388401 -69.70355718 68.59082271 -64.84365845 63.76849365 C-63.15007138 62.0878576 -61.45979223 60.40395371 -59.77026367 58.71923828 C-55.57638982 54.53861989 -51.37704601 50.3635102 -47.17785645 46.18823242 C-43.61792169 42.64814283 -40.06012179 39.10593278 -36.5050354 35.56097412 C-34.85267468 33.91501894 -33.19729535 32.27214355 -31.54174805 30.62939453 C-26.64966455 25.76092291 -21.86068459 20.85495937 -17.37319946 15.60473633 C-14.64135301 12.41226986 -11.65517011 9.47085773 -8.6875 6.5 C-8.06810547 5.86835937 -7.44871094 5.23671875 -6.81054688 4.5859375 C-5.92012695 3.69261719 -5.92012695 3.69261719 -5.01171875 2.78125 C-4.21447388 1.9778418 -4.21447388 1.9778418 -3.40112305 1.15820312 C-2 0 -2 0 0 0 Z " fill="#EBEDF2" transform="translate(489,786)"/>
<path d="M0 0 C3.93457369 1.31152456 4.88821339 3.12866931 7.375 6.4375 C7.80272705 7.0051709 8.2304541 7.5728418 8.67114258 8.15771484 C10.12477351 10.09744161 11.56379708 12.04733685 13 14 C13.5357666 14.72622559 14.0715332 15.45245117 14.62353516 16.20068359 C22.8147819 27.3345791 30.50205589 38.6001145 37.4375 50.5625 C37.79239502 51.17125977 38.14729004 51.78001953 38.51293945 52.40722656 C41 56.7625161 41 56.7625161 41 59 C41.66 59 42.32 59 43 59 C44.94215484 62.71534336 46.88090346 66.4324387 48.81665039 70.15112305 C49.47426804 71.41331686 50.13277946 72.67504545 50.79223633 73.9362793 C51.74541519 75.75965779 52.69526032 77.5847408 53.64453125 79.41015625 C54.21534424 80.50465088 54.78615723 81.59914551 55.37426758 82.72680664 C57.05135148 86.10338929 58.54135011 89.52412236 60 93 C60.59702871 94.35631978 61.19566982 95.71193257 61.796875 97.06640625 C66.37971251 107.55299615 70.12059098 118.12943792 73.45703125 129.07421875 C74.38639185 132.11446394 75.38546211 135.09102332 76.53515625 138.0546875 C78.21709946 142.43480544 79.43886071 146.90161548 80.625 151.4375 C80.8415625 152.23220703 81.058125 153.02691406 81.28125 153.84570312 C82.35287401 157.91059789 83.16030698 161.84923737 83.5859375 166.03515625 C83.5546796 169.76462489 83.5546796 169.76462489 85 171 C85.14115161 173.67058851 85.04247107 176.32432238 85 179 C79.93561207 178.49356121 76.50344409 177.27347781 72 175 C69.4644372 174.03497237 66.92903819 173.09956828 64.375 172.1875 C58.41127673 170.00016548 52.73359607 167.55058505 47.09375 164.609375 C44.24877467 163.12941309 41.37274826 161.73119878 38.48388672 160.33959961 C7.68959126 145.36688716 -22.2670778 124.92817841 -48.09375 102.5078125 C-50.85022342 100.1292427 -53.65962943 97.83969364 -56.5 95.5625 C-62.9353759 90.33435119 -68.96042902 84.67470024 -75 79 C-73.6589067 75.0192919 -72.00870508 72.64397157 -69.02856445 69.70385742 C-68.21043777 68.88918503 -67.3923111 68.07451263 -66.5493927 67.2351532 C-65.66297592 66.36735733 -64.77655914 65.49956146 -63.86328125 64.60546875 C-62.46816597 63.22046607 -61.07305316 61.8354609 -59.67808056 60.45031452 C-57.72362628 58.51337783 -55.76234166 56.58342766 -53.80108643 54.65338135 C-50.38751973 51.29188102 -46.98346418 47.92076406 -43.5813446 44.54768372 C-41.77258557 42.75573908 -39.96074287 40.96689987 -38.14533997 39.1816864 C-33.77450395 34.86200029 -29.58436869 30.47553535 -25.58265686 25.81221008 C-23.19451037 23.07767978 -20.64614185 20.52124825 -18.06640625 17.96875 C-17.5436058 17.4473645 -17.02080536 16.925979 -16.48216248 16.38879395 C-14.84465002 14.75678922 -13.20366151 13.12833426 -11.5625 11.5 C-10.4379167 10.38044368 -9.31356595 9.26065371 -8.18945312 8.140625 C-5.46230656 5.42438466 -2.73204093 2.71131708 0 0 Z " fill="#EBEDF2" transform="translate(899,366)"/>
<path d="M0 0 C15.333201 1.69624931 29.81649525 5.29316913 44.625 9.5625 C45.64456787 9.85535889 46.66413574 10.14821777 47.71459961 10.44995117 C52.99823136 12.0021082 57.97229196 13.76338638 63 16 C65.8685854 16.96251082 68.75150673 17.85632344 71.64453125 18.7421875 C75.35900183 20.13457344 78.79520327 21.850815 82.32495117 23.65283203 C84.93920007 24.96938085 87.5756549 26.21358599 90.234375 27.4375 C114.74985001 38.78213291 138.04280585 52.61161316 158.72265625 70.08984375 C162.04035771 72.87261565 165.50465252 75.44609281 169 78 C167.66000502 81.006818 166.20154709 82.99762609 163.8125 85.25 C161.41532087 87.51805707 159.23781347 89.88149726 157.10424805 92.39355469 C152.58485282 97.57246956 147.71971569 102.39314369 142.84365845 107.23150635 C141.15007138 108.9121424 139.45979223 110.59604629 137.77026367 112.28076172 C133.57638982 116.46138011 129.37704601 120.6364898 125.17785645 124.81176758 C121.61792169 128.35185717 118.06012179 131.89406722 114.5050354 135.43902588 C112.85267468 137.08498106 111.19729535 138.72785645 109.54174805 140.37060547 C104.14932401 145.73715863 98.88878134 151.16255337 94 157 C90.43468125 154.31048254 87.64247488 151.5613038 84.875 148.0625 C81.93527836 144.39028958 78.96473382 140.76425784 75.90063477 137.1953125 C70.30436233 130.67136792 65.05546682 123.95568599 60 117 C59.61521484 116.4735791 59.23042969 115.9471582 58.83398438 115.40478516 C44.49088044 95.7505073 31.42900553 75.46227098 20.76953125 53.5625 C19.23351875 50.47013047 17.59723932 47.4905551 15.875 44.5 C12.39006545 38.22143585 10.08712403 31.54859164 7.66845703 24.80957031 C6.79427823 22.4430936 5.8056729 20.1311622 4.8125 17.8125 C2.46658506 12.07040694 1.25333831 6.05780183 0 0 Z " fill="#EBEDF2" transform="translate(685,240)"/>
<path d="M0 0 C0.99 0.33 1.98 0.66 3 1 C-5.57617703 11.11549086 -14.55491209 20.69874591 -24 30 C-24.99 29.34 -25.98 28.68 -27 28 C-25.37660195 26.29115995 -23.70680947 24.62553283 -22 23 C-21.34 23 -20.68 23 -20 23 C-19.34 21.68 -18.68 20.36 -18 19 C-17.34 19 -16.68 19 -16 19 C-15.773125 18.443125 -15.54625 17.88625 -15.3125 17.3125 C-13.62971908 14.34760028 -11.43891488 12.383485 -9 10 C-7.45073772 8.23664369 -5.93633112 6.44826583 -4.4296875 4.6484375 C-3.01874648 3.0216148 -1.54035336 1.50389529 0 0 Z " fill="#1F2020" transform="translate(945,880)"/>
<path d="M0 0 C0.99 0 1.98 0 3 0 C3 0.66 3 1.32 3 2 C3.99 2 4.98 2 6 2 C7.578125 3.5390625 7.578125 3.5390625 9.25 5.625 C12.14598018 9.10758597 15.16013487 11.97654568 18.71484375 14.7734375 C19.13894531 15.17820312 19.56304688 15.58296875 20 16 C20 16.66 20 17.32 20 18 C20.66 18.33 21.32 18.66 22 19 C22 19.66 22 20.32 22 21 C22.99 21.33 23.98 21.66 25 22 C24.67 22.99 24.34 23.98 24 25 C18.41235744 20.33992095 13.20827395 15.39136454 8.0625 10.25 C7.28326172 9.48300781 6.50402344 8.71601563 5.70117188 7.92578125 C4.96576172 7.19230469 4.23035156 6.45882813 3.47265625 5.703125 C2.80500244 5.03958008 2.13734863 4.37603516 1.44946289 3.69238281 C0 2 0 2 0 0 Z " fill="#E3E4E7" transform="translate(571,481)"/>
<path d="M0 0 C0.99 0 1.98 0 3 0 C4.45504669 2.12232924 5.70118525 4.19087251 6.9375 6.4375 C10.93251608 13.43877632 15.39926761 19.97016509 20.18920898 26.45092773 C20.68493408 27.13227783 21.18065918 27.81362793 21.69140625 28.515625 C22.13685791 29.11665039 22.58230957 29.71767578 23.04125977 30.33691406 C24 32 24 32 24 35 C20.125 32.375 20.125 32.375 19 29 C18.34 28.67 17.68 28.34 17 28 C16.731875 27.2575 16.46375 26.515 16.1875 25.75 C15.13270933 22.82767106 15.13270933 22.82767106 12.5625 20.625 C9.63448807 17.62557315 8.60474006 14.83742187 7 11 C5.70766393 9.62689293 4.37562854 8.28965176 3 7 C0 2.5 0 2.5 0 0 Z " fill="#E4E6E8" transform="translate(257,818)"/>
<path d="M0 0 C-1.52708963 3.43595166 -3.59927045 6.11912454 -6 9 C-5.34 9 -4.68 9 -4 9 C-3.34 10.32 -2.68 11.64 -2 13 C-2.99 13.33 -3.98 13.66 -5 14 C-3.02 15.98 -1.04 17.96 1 20 C0.67 20.66 0.34 21.32 0 22 C-3.63 18.37 -7.26 14.74 -11 11 C-9.28771067 7.57542133 -8.12304686 5.85081765 -5.5 3.25 C-4.8915625 2.63640625 -4.283125 2.0228125 -3.65625 1.390625 C-2 0 -2 0 0 0 Z " fill="#ECEFF1" transform="translate(690,582)"/>
<path d="M0 0 C3.15204981 1.39347376 5.26171773 3.02485079 7.671875 5.4765625 C8.33574219 6.146875 8.99960937 6.8171875 9.68359375 7.5078125 C10.36550781 8.20648438 11.04742187 8.90515625 11.75 9.625 C12.44738281 10.33140625 13.14476562 11.0378125 13.86328125 11.765625 C15.58012488 13.50598703 17.29211832 15.25084981 19 17 C18.34 17.66 17.68 18.32 17 19 C15 17.625 15 17.625 13 16 C13 15.34 13 14.68 13 14 C12.443125 13.773125 11.88625 13.54625 11.3125 13.3125 C8.34746553 11.6296426 6.34646311 9.46378626 4 7 C3.236875 6.29875 2.47375 5.5975 1.6875 4.875 C0 3 0 3 0 0 Z " fill="#DADBDD" transform="translate(493,499)"/>
<path d="M0 0 C7.63061905 3.40097727 14.0724388 10.38669419 19 17 C18.67 17.99 18.34 18.98 18 20 C14.99196428 17.04974274 11.9949821 14.08850331 9 11.125 C8.14148438 10.28324219 7.28296875 9.44148438 6.3984375 8.57421875 C5.58632813 7.76855469 4.77421875 6.96289062 3.9375 6.1328125 C2.80634766 5.01737061 2.80634766 5.01737061 1.65234375 3.87939453 C0 2 0 2 0 0 Z " fill="#D5D6D9" transform="translate(503,412)"/>
<path d="M0 0 C0.33 0.66 0.66 1.32 1 2 C2.32488113 2.36548445 3.66018514 2.6937566 5 3 C6.3479743 3.63654342 7.68596724 4.29605388 9 5 C9 5.99 9 6.98 9 8 C9.59296875 8.25523437 10.1859375 8.51046875 10.796875 8.7734375 C13.21224538 10.11816498 14.51211706 11.49214367 16.25 13.625 C16.77078125 14.25664063 17.2915625 14.88828125 17.828125 15.5390625 C18.40820312 16.26222656 18.40820312 16.26222656 19 17 C14.79243909 17 13.70329228 15.16978591 10.6875 12.3125 C6.88273401 8.74847833 3.05016433 5.28391702 -1 2 C-0.67 1.34 -0.34 0.68 0 0 Z " fill="#141416" transform="translate(334,907)"/>
<path d="M0 0 C1 2 1 2 0.25 5.125 C-2.23107548 10.76380791 -8.02589745 13.7486766 -13 17 C-13.66 16.67 -14.32 16.34 -15 16 C-14.36384766 15.38125 -14.36384766 15.38125 -13.71484375 14.75 C-9.75129367 10.84742761 -6.01204355 6.81667838 -2.3828125 2.6015625 C-1.61429517 1.71147181 -0.83152881 0.83152881 0 0 Z " fill="#1C1D1E" transform="translate(320,301)"/>
<path d="M0 0 C0.99 0.33 1.98 0.66 3 1 C3 1.66 3 2.32 3 3 C2.34 3 1.68 3 1 3 C0.67 4.32 0.34 5.64 0 7 C-0.598125 7.103125 -1.19625 7.20625 -1.8125 7.3125 C-4.39967266 8.12561141 -5.16388228 9.02264246 -7 11 C-8.97376492 12.69977185 -10.98777964 14.3455077 -13 16 C-13.66 15.67 -14.32 15.34 -15 15 C-10.05 10.05 -5.1 5.1 0 0 Z " fill="#E0E3E7" transform="translate(601,671)"/>
<path d="M0 0 C0.99 0.33 1.98 0.66 3 1 C-1.11619836 5.91935902 -5.40410362 10.52647956 -10 15 C-10.66 14.67 -11.32 14.34 -12 14 C-10.69267618 11.08366224 -9.24135944 9.24135944 -7 7 C-7 6.34 -7 5.68 -7 5 C-5.68 5 -4.36 5 -3 5 C-2.690625 4.360625 -2.38125 3.72125 -2.0625 3.0625 C-1 1 -1 1 0 0 Z " fill="#E3E5E7" transform="translate(712,460)"/>
<path d="M0 0 C0 0.99 0 1.98 0 3 C-0.763125 3.7425 -1.52625 4.485 -2.3125 5.25 C-5.429535 8.43952418 -6.46165121 10.87074797 -8 15 C-8.99 15 -9.98 15 -11 15 C-13.67398476 16.93897879 -13.67398476 16.93897879 -16 19 C-16.66 18.67 -17.32 18.34 -18 18 C-12.06 12.06 -6.12 6.12 0 0 Z " fill="#CECFD2" transform="translate(887,378)"/>
<path d="M0 0 C4.32504836 1.65863505 7.09418825 4.871041 10.25 8.125 C11.08144531 8.96998047 11.08144531 8.96998047 11.9296875 9.83203125 C13.29104485 11.21686028 14.64614859 12.60783204 16 14 C15.67 14.66 15.34 15.32 15 16 C14.34 16 13.68 16 13 16 C13 15.34 13 14.68 13 14 C12.34 14 11.68 14 11 14 C11 13.34 11 12.68 11 12 C10.34 12 9.68 12 9 12 C9 11.34 9 10.68 9 10 C7.68 9.34 6.36 8.68 5 8 C5 7.34 5 6.68 5 6 C4.01 5.67 3.02 5.34 2 5 C0.3125 2.9375 0.3125 2.9375 -1 1 C-0.67 0.67 -0.34 0.34 0 0 Z " fill="#D7D7DA" transform="translate(783,794)"/>
<path d="M0 0 C3.90285767 1.58667578 6.33520982 4.13350481 9.25 7.125 C10.14203125 8.03507813 11.0340625 8.94515625 11.953125 9.8828125 C12.62859375 10.58148437 13.3040625 11.28015625 14 12 C13.67 12.66 13.34 13.32 13 14 C10.08728356 12.65319085 7.70671723 11.12551255 5.25 9.0625 C4.63640625 8.55847656 4.0228125 8.05445313 3.390625 7.53515625 C2 6 2 6 2 3 C1.01 2.67 0.02 2.34 -1 2 C-0.67 1.34 -0.34 0.68 0 0 Z " fill="#E9E9EC" transform="translate(663,673)"/>
<path d="M0 0 C0.66 0.66 1.32 1.32 2 2 C1.2575 2.721875 0.515 3.44375 -0.25 4.1875 C-3.00718317 6.8851686 -3.00718317 6.8851686 -5.0625 9.75 C-7.17317673 12.20110846 -7.97612352 12.37437038 -11 13 C-11.33 13.99 -11.66 14.98 -12 16 C-12.66 16 -13.32 16 -14 16 C-14.33 16.66 -14.66 17.32 -15 18 C-15 15 -15 15 -13.62304688 13.2824707 C-12.99462891 12.66976318 -12.36621094 12.05705566 -11.71875 11.42578125 C-11.04199219 10.75869141 -10.36523438 10.09160156 -9.66796875 9.40429688 C-8.95253906 8.71400391 -8.23710938 8.02371094 -7.5 7.3125 C-6.42685547 6.2596582 -6.42685547 6.2596582 -5.33203125 5.18554688 C-3.56120423 3.45013639 -1.78376544 1.7220927 0 0 Z " fill="#0A0B0C" transform="translate(559,620)"/>
<path d="M0 0 C0.66 0.66 1.32 1.32 2 2 C-0.09663099 5.97256398 -2.30075595 8.43898489 -6 11 C-6.66 11 -7.32 11 -8 11 C-8.33 12.65 -8.66 14.3 -9 16 C-9.66 16 -10.32 16 -11 16 C-11 15.34 -11 14.68 -11 14 C-11.66 13.67 -12.32 13.34 -13 13 C-8.71 8.71 -4.42 4.42 0 0 Z " fill="#E1E2E6" transform="translate(728,541)"/>
<path d="M0 0 C1 3 1 3 -0.125 5.4375 C-2.14946458 8.20426826 -4.26679833 9.95009875 -7 12 C-8.0173873 12.98230498 -9.02596117 13.97469597 -10 15 C-10.83984375 13.359375 -10.83984375 13.359375 -11 11 C-9.24163592 8.8697315 -7.57575206 7.1050158 -5.5625 5.25 C-5.03333984 4.74339844 -4.50417969 4.23679687 -3.95898438 3.71484375 C-2.65022899 2.46504131 -1.32648041 1.23097382 0 0 Z " fill="#1D1E1E" transform="translate(574,604)"/>
<path d="M0 0 C0.33 1.32 0.66 2.64 1 4 C0.48050781 4.36351562 -0.03898437 4.72703125 -0.57421875 5.1015625 C-4.03375621 7.59549893 -7.13075837 9.92144422 -9.75 13.3125 C-12.09212344 16.11003633 -12.63099314 16.39839163 -16 17 C-11.01595832 10.96668638 -5.58084697 5.4815829 0 0 Z " fill="#DEDEE1" transform="translate(442,832)"/>
<path d="M0 0 C4.91935902 4.11619836 9.52647956 8.40410362 14 13 C13.67 13.66 13.34 14.32 13 15 C12.01 15 11.02 15 10 15 C9.67 14.01 9.34 13.02 9 12 C6.69773956 9.51106979 4.50033531 7.3380644 1.6875 5.4375 C1.130625 4.963125 0.57375 4.48875 0 4 C0 2.68 0 1.36 0 0 Z " fill="#D2D3D6" transform="translate(688,697)"/>
<path d="M0 0 C1.1796875 1.578125 1.1796875 1.578125 2 4 C0.8828125 7.234375 0.8828125 7.234375 -0.875 10.75 C-1.73738281 12.50570313 -1.73738281 12.50570313 -2.6171875 14.296875 C-3.07351562 15.18890625 -3.52984375 16.0809375 -4 17 C-4.99 17 -5.98 17 -7 17 C-5.1668733 11.00067626 -2.92678249 5.55079437 0 0 Z " fill="#E3E5E8" transform="translate(238,413)"/>
<path d="M0 0 C1.32 0.66 2.64 1.32 4 2 C3.21625 2.763125 2.4325 3.52625 1.625 4.3125 C-1.07257717 6.90891805 -1.07257717 6.90891805 -3 10 C-4.32 9.01 -5.64 8.02 -7 7 C-5.66667905 3.00003714 -3.5042173 2.16217663 0 0 Z " fill="#E1E2E5" transform="translate(871,949)"/>
<path d="M0 0 C2.59037598 3.20490963 4.37943156 6.55350453 6.1875 10.25 C6.71730469 11.32765625 7.24710938 12.4053125 7.79296875 13.515625 C8.19128906 14.33546875 8.58960938 15.1553125 9 16 C8.34 16.66 7.68 17.32 7 18 C6.15615325 16.58957044 5.32530504 15.17135868 4.5 13.75 C4.0359375 12.96109375 3.571875 12.1721875 3.09375 11.359375 C2 9 2 9 2 5 C1.01 5 0.02 5 -1 5 C-0.67 3.35 -0.34 1.7 0 0 Z " fill="#DEDFE2" transform="translate(246,795)"/>
<path d="M0 0 C0 5.02579129 -2.54094905 8.4448643 -6 12 C-9.25 12.8125 -9.25 12.8125 -12 13 C-8.19524578 8.43969176 -4.25030379 4.14910608 0 0 Z " fill="#111213" transform="translate(713,463)"/>
<path d="M0 0 C1.32 0 2.64 0 4 0 C3.67 1.32 3.34 2.64 3 4 C1.68 4.33 0.36 4.66 -1 5 C-1.33 6.32 -1.66 7.64 -2 9 C-3.65 9.33 -5.3 9.66 -7 10 C-6.02223933 8.51990357 -5.0427506 7.04094856 -4.0625 5.5625 C-3.51722656 4.73878906 -2.97195313 3.91507813 -2.41015625 3.06640625 C-1 1 -1 1 0 0 Z " fill="#E2E3E7" transform="translate(970,854)"/>
<path d="M0 0 C0.66 1.32 1.32 2.64 2 4 C-0.00142531 8.29935807 -1.04860326 10.3657355 -5 13 C-5.66 12.34 -6.32 11.68 -7 11 C-4.69 7.37 -2.38 3.74 0 0 Z " fill="#E2E3E5" transform="translate(987,829)"/>
<path d="M0 0 C1.67023755 2.95503567 2.30036166 5.31316601 2.5625 8.6875 C2.59506307 11.64181288 2.59506307 11.64181288 4 14 C4.14115161 16.67058851 4.04247107 19.32432238 4 22 C2.68 21.67 1.36 21.34 0 21 C0.99 21 1.98 21 3 21 C3 19.35 3 17.7 3 16 C2.34 16 1.68 16 1 16 C0.67 13.36 0.34 10.72 0 8 C-0.99 8.495 -0.99 8.495 -2 9 C-2 8.01 -2 7.02 -2 6 C-1.34 6 -0.68 6 0 6 C0 4.02 0 2.04 0 0 Z " fill="#BDBEBF" transform="translate(980,523)"/>
<path d="M0 0 C0.66 0.33 1.32 0.66 2 1 C0.03922263 5.6439464 -1.51971692 7.70241893 -6 10 C-6.66 10.66 -7.32 11.32 -8 12 C-10.125 12.625 -10.125 12.625 -12 13 C-8.19524578 8.43969176 -4.25030379 4.14910608 0 0 Z " fill="#222425" transform="translate(333,288)"/>
<path d="M0 0 C0.99 0 1.98 0 3 0 C4.68823573 2.43461363 6.17176127 4.80604896 7.625 7.375 C8.03234375 8.07367187 8.4396875 8.77234375 8.859375 9.4921875 C10.29680424 11.96723123 11.71968318 14.43936636 13 17 C12.01 16.67 11.02 16.34 10 16 C10 15.34 10 14.68 10 14 C9.34 14 8.68 14 8 14 C7.67 13.01 7.34 12.02 7 11 C6.38125 10.38125 5.7625 9.7625 5.125 9.125 C2.9016977 6.9016977 1.46077634 4.77547506 0 2 C0 1.34 0 0.68 0 0 Z " fill="#DADCDE" transform="translate(257,818)"/>
<path d="M0 0 C0.33 0.99 0.66 1.98 1 3 C-0.97711772 5.04772907 -2.83474765 6.8866841 -5.1875 8.5 C-7.305434 10.25277297 -7.63089578 11.32399437 -8 14 C-9.65 14 -11.3 14 -13 14 C-8.88380164 9.08064098 -4.59589638 4.47352044 0 0 Z " fill="#E5E5E8" transform="translate(742,527)"/>
<path d="M0 0 C0.66 0.66 1.32 1.32 2 2 C-1.96 5.96 -5.92 9.92 -10 14 C-10.66 13.67 -11.32 13.34 -12 13 C-12 12.34 -12 11.68 -12 11 C-11.071875 10.87625 -11.071875 10.87625 -10.125 10.75 C-7.8653367 10.22094022 -7.8653367 10.22094022 -7.0625 8.25 C-6.711875 7.5075 -6.36125 6.765 -6 6 C-4.37347684 4.29413425 -2.70993434 2.6222454 -1 1 C-0.67 0.67 -0.34 0.34 0 0 Z " fill="#0F1010" transform="translate(896,366)"/>
<path d="M0 0 C0.66 0.33 1.32 0.66 2 1 C-0.73617381 4.85091128 -2.63605348 6.36352006 -7 8 C-9.27191416 10.02040748 -9.27191416 10.02040748 -11 12 C-11.99 11.34 -12.98 10.68 -14 10 C-9.38 6.7 -4.76 3.4 0 0 Z " fill="#222324" transform="translate(833,898)"/>
<path d="M0 0 C0.33 0.99 0.66 1.98 1 3 C0.01 3.33 -0.98 3.66 -2 4 C-2.144375 4.598125 -2.28875 5.19625 -2.4375 5.8125 C-3.21735906 8.84528522 -4.58281251 10.05282119 -7 12 C-9.75 12.75 -9.75 12.75 -12 13 C-8.19524578 8.43969176 -4.25030379 4.14910608 0 0 Z " fill="#1E1E1E" transform="translate(394,787)"/>
<path d="M0 0 C4.88049925 3.9419417 9.0580583 8.11950075 13 13 C12.34 13.66 11.68 14.32 11 15 C6.93521893 10.38465781 2.91391705 5.74414188 -1 1 C-0.67 0.67 -0.34 0.34 0 0 Z " fill="#0B0C0B" transform="translate(506,508)"/>
<path d="M0 0 C4.52615993 3.67832017 8.39424999 7.41086363 12 12 C8 12 8 12 5.4375 9.75 C0 3.61538462 0 3.61538462 0 0 Z " fill="#D2D3D5" transform="translate(436,440)"/>
<path d="M0 0 C0.66 1.32 1.32 2.64 2 4 C0.68 5.65 -0.64 7.3 -2 9 C-4.97 8.505 -4.97 8.505 -8 8 C-5.33333333 5.33333333 -2.66666667 2.66666667 0 0 Z " fill="#E0E1E4" transform="translate(909,919)"/>
<path d="M0 0 C-2.16989484 4.8822634 -5.3226277 9.28410641 -10 12 C-10.99 11.67 -11.98 11.34 -13 11 C-11.21427748 9.16052663 -9.42197551 7.32842259 -7.625 5.5 C-7.11710937 4.97535156 -6.60921875 4.45070313 -6.0859375 3.91015625 C-2.2265625 0 -2.2265625 0 0 0 Z " fill="#080809" transform="translate(428,755)"/>
<path d="M0 0 C0.66 0 1.32 0 2 0 C2.86343731 2.28855702 3.7159811 4.5801928 4.5625 6.875 C4.80935547 7.52597656 5.05621094 8.17695312 5.31054688 8.84765625 C5.93173115 10.54497665 6.47152252 12.27156776 7 14 C6.67 14.66 6.34 15.32 6 16 C2.23892444 12.85048144 1.3788455 10.57114884 0.75 5.75 C0.60046875 4.67234375 0.4509375 3.5946875 0.296875 2.484375 C0.19890625 1.66453125 0.1009375 0.8446875 0 0 Z " fill="#D3D4D6" transform="translate(221,739)"/>
<path d="M0 0 C0.33 0 0.66 0 1 0 C1.31918373 7.85546636 0.35709504 15.26940505 -1 23 C-1.33 23 -1.66 23 -2 23 C-2.89316269 17.06390334 -2.97040422 11.93024803 -2 6 C-1.67 6 -1.34 6 -1 6 C-0.67 4.02 -0.34 2.04 0 0 Z " fill="#CCCFD0" transform="translate(985,642)"/>
<path d="M0 0 C0.66 1.32 1.32 2.64 2 4 C1.21625 4.61875 0.4325 5.2375 -0.375 5.875 C-2.96837647 7.89858661 -2.96837647 7.89858661 -5 10 C-6.32 9.67 -7.64 9.34 -9 9 C-6.03 6.03 -3.06 3.06 0 0 Z " fill="#1A1A1B" transform="translate(584,594)"/>
<path d="M0 0 C0.99 0 1.98 0 3 0 C1.59155282 3.21524305 -0.10344786 5.32183868 -2.625 7.75 C-3.57246094 8.67039062 -3.57246094 8.67039062 -4.5390625 9.609375 C-5.02117188 10.06828125 -5.50328125 10.5271875 -6 11 C-6.99 10.34 -7.98 9.68 -9 9 C-7.37660195 7.29115995 -5.70680947 5.62553283 -4 4 C-3.34 4 -2.68 4 -2 4 C-1.34 2.68 -0.68 1.36 0 0 Z " fill="#232424" transform="translate(927,899)"/>
<path d="M0 0 C0.99 0 1.98 0 3 0 C3 0.66 3 1.32 3 2 C3.99 2.33 4.98 2.66 6 3 C7.60546875 4.62890625 7.60546875 4.62890625 9.1875 6.5625 C9.71730469 7.20316406 10.24710938 7.84382812 10.79296875 8.50390625 C11.39044922 9.24447266 11.39044922 9.24447266 12 10 C11.34 10.66 10.68 11.32 10 12 C8.32737283 10.38113585 6.66204463 8.7547271 5 7.125 C4.071875 6.22007812 3.14375 5.31515625 2.1875 4.3828125 C0 2 0 2 0 0 Z " fill="#DEE0E1" transform="translate(729,642)"/>
<path d="M0 0 C5.91492272 0.45224761 11.35199888 1.1582605 17 3 C17 3.66 17 4.32 17 5 C11.2190275 4.36934845 5.6556294 3.34844868 0 2 C0 1.34 0 0.68 0 0 Z " fill="#D9DBDD" transform="translate(714,178)"/>
<path d="M0 0 C2.9008605 0.35298081 3.89516676 0.88728296 5.921875 3.06640625 C6.52515625 3.89011719 7.1284375 4.71382812 7.75 5.5625 C8.36359375 6.38878906 8.9771875 7.21507812 9.609375 8.06640625 C10.06828125 8.70449219 10.5271875 9.34257813 11 10 C10.34 10.66 9.68 11.32 9 12 C7.49707257 10.18992669 5.99772829 8.37687764 4.5 6.5625 C3.6646875 5.55316406 2.829375 4.54382813 1.96875 3.50390625 C0 1 0 1 0 0 Z " fill="#E2E3E6" transform="translate(540,738)"/>
<path d="M0 0 C1.5625 1.625 1.5625 1.625 3 4 C2.6875 7.25 2.6875 7.25 2 10 C1.34 10 0.68 10 0 10 C0 10.99 0 11.98 0 13 C-0.66 13 -1.32 13 -2 13 C-2.33 13.99 -2.66 14.98 -3 16 C-2.30834212 10.58201328 -1.24200752 5.3177215 0 0 Z " fill="#2A2A2B" transform="translate(980,677)"/>
<path d="M0 0 C0.33 1.32 0.66 2.64 1 4 C1.66 4 2.32 4 3 4 C3 10.6 3 17.2 3 24 C2.67 24 2.34 24 2 24 C0.81603117 15.97649696 -0.28545428 8.13544686 0 0 Z " fill="#B7B8BB" transform="translate(266,627)"/>
<path d="M0 0 C1.125 1.625 1.125 1.625 2 4 C1.25465624 6.86670678 0.32208367 9.35583266 -1 12 C-3.0625 12.625 -3.0625 12.625 -5 13 C-4.54554036 11.58208592 -4.08625056 10.16571954 -3.625 8.75 C-3.24214844 7.56664062 -3.24214844 7.56664062 -2.8515625 6.359375 C-2.04826333 4.13372042 -1.10288338 2.09068328 0 0 Z " fill="#CFD0D4" transform="translate(297,454)"/>
<path d="M0 0 C3.3 0.33 6.6 0.66 10 1 C9.67 1.99 9.34 2.98 9 4 C7.67203709 4.35412344 6.33783393 4.68521554 5 5 C3.26973898 6.47890069 3.26973898 6.47890069 2 8 C1.34 5.36 0.68 2.72 0 0 Z " fill="#D7D7DA" transform="translate(685,240)"/>
<path d="M0 0 C4.13621084 3.3810038 7.81316569 6.66590534 11 11 C8 11 8 11 5.5 8.6875 C4.675 7.800625 3.85 6.91375 3 6 C2.401875 5.46375 1.80375 4.9275 1.1875 4.375 C0 3 0 3 0 0 Z " fill="#0B0B0D" transform="translate(868,785)"/>
<path d="M0 0 C3.15330554 0.60694155 5.18888867 1.6416665 7.75 3.5625 C8.67039062 4.24505859 8.67039062 4.24505859 9.609375 4.94140625 C10.29773438 5.46541016 10.29773438 5.46541016 11 6 C10.01 6.33 9.02 6.66 8 7 C7.34 6.67 6.68 6.34 6 6 C4.68 6 3.36 6 2 6 C0 1.125 0 1.125 0 0 Z " fill="#E1E3E7" transform="translate(372,680)"/>
<path d="M0 0 C0.66 0.33 1.32 0.66 2 1 C1.67 1.99 1.34 2.98 1 4 C0.79761719 4.8559375 0.59523438 5.711875 0.38671875 6.59375 C0.15597656 7.5528125 -0.07476562 8.511875 -0.3125 9.5 C-0.53550781 10.4590625 -0.75851562 11.418125 -0.98828125 12.40625 C-2.14836549 15.38036557 -3.31335936 16.36031829 -6 18 C-4.23536928 11.89262558 -2.30442525 5.92566493 0 0 Z " fill="#C9CACC" transform="translate(290,470)"/>
<path d="M0 0 C0.66 0.33 1.32 0.66 2 1 C1.375 2.875 1.375 2.875 0 5 C-3.75263725 6.66783878 -6.91226018 7.24045528 -11 7 C-7.53252172 4.22601737 -3.93597489 2.04087587 0 0 Z " fill="#CDCED1" transform="translate(829,975)"/>
<path d="M0 0 C2 3 2 3 1.875 4.875 C0.70278154 7.72181625 -0.92764954 9.73925405 -3 12 C-3.66 12 -4.32 12 -5 12 C-3.68938409 7.76570244 -2.05643741 3.92592596 0 0 Z " fill="#DCDCE0" transform="translate(1010,789)"/>
<path d="M0 0 C3.26008643 3.16952847 6.22237877 6.39937989 9 10 C5 10 5 10 3.26171875 8.57421875 C2.48248047 7.64029297 2.48248047 7.64029297 1.6875 6.6875 C1.15511719 6.07261719 0.62273438 5.45773437 0.07421875 4.82421875 C-0.28027344 4.22222656 -0.63476562 3.62023437 -1 3 C-0.67 2.01 -0.34 1.02 0 0 Z " fill="#151517" transform="translate(944,313)"/>
<path d="M0 0 C1.07349791 4.29399165 0.79682816 5.19495213 -1 9 C-1.99 8.34 -2.98 7.68 -4 7 C-5.32 8.32 -6.64 9.64 -8 11 C-8.66 10.67 -9.32 10.34 -10 10 C-6.7 6.7 -3.4 3.4 0 0 Z " fill="#CDCFD3" transform="translate(479,794)"/>
<path d="M0 0 C1.24506944 3.59686728 0.91681587 6.33273652 0 10 C-1.4375 12.375 -1.4375 12.375 -3 14 C-3.66 14 -4.32 14 -5 14 C-4.54636829 12.41531323 -4.08688548 10.83230076 -3.625 9.25 C-3.36976563 8.36828125 -3.11453125 7.4865625 -2.8515625 6.578125 C-2.0790066 4.23919428 -1.16374324 2.16557438 0 0 Z " fill="#1C1C1D" transform="translate(968,720)"/>
<path d="M0 0 C0 0.33 0 0.66 0 1 C-1.98 1 -3.96 1 -6 1 C-6 1.66 -6 2.32 -6 3 C-11.94 2.67 -17.88 2.34 -24 2 C-24 1.67 -24 1.34 -24 1 C-21.50018262 0.8301095 -19.00020399 0.66402047 -16.5 0.5 C-15.80390625 0.45230469 -15.1078125 0.40460938 -14.390625 0.35546875 C-9.58304475 0.04386633 -4.81771254 -0.04340282 0 0 Z " fill="#C2C3C5" transform="translate(664,1029)"/>
<path d="M0 0 C0.33 0.66 0.66 1.32 1 2 C0.38125 2.0825 -0.2375 2.165 -0.875 2.25 C-3.67505419 3.23825442 -3.74113932 4.40359985 -5 7 C-7.99904936 9.0683099 -10.41302423 9.19927643 -14 9 C-11.03786426 6.69534766 -7.97847243 4.72409552 -4.75 2.8125 C-3.85796875 2.28269531 -2.9659375 1.75289062 -2.046875 1.20703125 C-1.03367187 0.60955078 -1.03367187 0.60955078 0 0 Z " fill="#DADADC" transform="translate(852,962)"/>
<path d="M0 0 C1.13199353 0.9080162 2.25532363 1.82683826 3.375 2.75 C4.00148438 3.26046875 4.62796875 3.7709375 5.2734375 4.296875 C7.08312318 6.08199481 8.00117455 7.67949644 9 10 C6 10 6 10 4.17578125 8.25 C3.56089844 7.5075 2.94601562 6.765 2.3125 6 C1.68988281 5.2575 1.06726563 4.515 0.42578125 3.75 C-0.04472656 3.1725 -0.51523437 2.595 -1 2 C-0.67 1.34 -0.34 0.68 0 0 Z " fill="#151616" transform="translate(307,879)"/>
<path d="M0 0 C0.99 0 1.98 0 3 0 C3 0.66 3 1.32 3 2 C3.99 2 4.98 2 6 2 C7.75 3.8125 7.75 3.8125 9 6 C8.67 6.99 8.34 7.98 8 9 C6.84775972 8.07038578 5.70340824 7.1309875 4.5625 6.1875 C3.60537109 5.40439453 3.60537109 5.40439453 2.62890625 4.60546875 C1 3 1 3 0 0 Z " fill="#DCDCDF" transform="translate(571,481)"/>
<path d="M0 0 C0.33 1.32 0.66 2.64 1 4 C0.34 4 -0.32 4 -1 4 C-1.268125 4.61875 -1.53625 5.2375 -1.8125 5.875 C-3 8 -3 8 -6 10 C-6.33 8.68 -6.66 7.36 -7 6 C-4.69 4.02 -2.38 2.04 0 0 Z " fill="#E4E5E8" transform="translate(900,927)"/>
<path d="M0 0 C2 2 2 2 2 4 C0.57421875 5.54296875 0.57421875 5.54296875 -1.3125 7.1875 C-1.92738281 7.73792969 -2.54226563 8.28835938 -3.17578125 8.85546875 C-3.77777344 9.23316406 -4.37976563 9.61085938 -5 10 C-5.99 9.67 -6.98 9.34 -8 9 C-5.36 6.03 -2.72 3.06 0 0 Z " fill="#E1E1E4" transform="translate(950,878)"/>
<path d="M0 0 C0.66 0.99 1.32 1.98 2 3 C1.125 6.6875 1.125 6.6875 0 10 C-1.32 10.33 -2.64 10.66 -4 11 C-3.52269162 9.5410574 -3.04308958 8.08286504 -2.5625 6.625 C-2.29566406 5.81289063 -2.02882813 5.00078125 -1.75390625 4.1640625 C-1 2 -1 2 0 0 Z " fill="#D5D8DB" transform="translate(1016,776)"/>
<path d="M0 0 C0.99 0 1.98 0 3 0 C3.20086443 3.71599191 3.1519437 4.77208445 1 8 C0.34 8 -0.32 8 -1 8 C-1 8.66 -1 9.32 -1 10 C-1.66 10 -2.32 10 -3 10 C-2.21302675 6.58978257 -1.12880057 3.31114834 0 0 Z " fill="#DCDDE0" transform="translate(1028,748)"/>
<path d="M0 0 C0.59296875 0.22171875 1.1859375 0.4434375 1.796875 0.671875 C0.50722324 2.04750354 -0.83001793 3.37953893 -2.203125 4.671875 C-2.863125 4.671875 -3.523125 4.671875 -4.203125 4.671875 C-4.533125 5.661875 -4.863125 6.651875 -5.203125 7.671875 C-6.193125 8.001875 -7.183125 8.331875 -8.203125 8.671875 C-8.203125 5.19064369 -7.79161196 4.80666864 -5.453125 2.421875 C-4.94265625 1.88046875 -4.4321875 1.3390625 -3.90625 0.78125 C-2.203125 -0.328125 -2.203125 -0.328125 0 0 Z " fill="#E6E7EA" transform="translate(552.203125,723.328125)"/>
<path d="M0 0 C-1.86083181 4.56749627 -5.03688123 7.88579746 -9.3125 10.3125 C-10.1478125 10.6528125 -10.1478125 10.6528125 -11 11 C-9.60249952 7.84164893 -7.94801766 5.67727175 -5.5 3.25 C-4.8915625 2.63640625 -4.283125 2.0228125 -3.65625 1.390625 C-2 0 -2 0 0 0 Z " fill="#DDDEE0" transform="translate(690,582)"/>
<path d="M0 0 C0.66 0.66 1.32 1.32 2 2 C1.38511719 2.54269531 0.77023437 3.08539062 0.13671875 3.64453125 C-0.67152344 4.35996094 -1.47976563 5.07539062 -2.3125 5.8125 C-3.11300781 6.52019531 -3.91351562 7.22789062 -4.73828125 7.95703125 C-6.54983162 9.59337122 -8.29681703 11.25272168 -10 13 C-10 10 -10 10 -7.8125 7.51953125 C-6.884375 6.62621094 -5.95625 5.73289062 -5 4.8125 C-4.071875 3.91144531 -3.14375 3.01039063 -2.1875 2.08203125 C-1.1046875 1.05142578 -1.1046875 1.05142578 0 0 Z " fill="#060707" transform="translate(664,513)"/>
<path d="M0 0 C0.33 1.32 0.66 2.64 1 4 C-1.64 4.99 -4.28 5.98 -7 7 C-7 4 -7 4 -5.1875 1.8125 C-3 0 -3 0 0 0 Z " fill="#E4E6EA" transform="translate(454,823)"/>
<path d="M0 0 C0.66 0.66 1.32 1.32 2 2 C-0.31 4.31 -2.62 6.62 -5 9 C-5.66 8.67 -6.32 8.34 -7 8 C-5.50902342 4.2047869 -3.24299151 2.38957269 0 0 Z " fill="#141416" transform="translate(547,723)"/>
<path d="M0 0 C3.14947449 2.3833861 5.9972676 4.55084975 8 8 C7.67 8.99 7.34 9.98 7 11 C4.36 8.36 1.72 5.72 -1 3 C-0.67 2.01 -0.34 1.02 0 0 Z " fill="#E0E1E4" transform="translate(514,421)"/>
<path d="M0 0 C4.00972202 3.67557852 6.45335415 7.18966896 9 12 C8.34 12.66 7.68 13.32 7 14 C7 13.34 7 12.68 7 12 C6.34 12 5.68 12 5 12 C5 11.01 5 10.02 5 9 C4.34 8.67 3.68 8.34 3 8 C1.82513503 5.37383124 0.90985138 2.72955415 0 0 Z " fill="#E0E1E4" transform="translate(660,358)"/>
<path d="M0 0 C0 3.41321235 -0.66867466 4.39472885 -2.5 7.1875 C-2.9640625 7.90292969 -3.428125 8.61835937 -3.90625 9.35546875 C-4.2671875 9.89816406 -4.628125 10.44085937 -5 11 C-6.32 10.34 -7.64 9.68 -9 9 C-6.03 6.03 -3.06 3.06 0 0 Z " fill="#CACBCE" transform="translate(417,857)"/>
<path d="M0 0 C0.33 0.99 0.66 1.98 1 3 C-0.9628843 6.1708131 -2.12536 7.74158364 -5.75 8.8125 C-6.4925 8.874375 -7.235 8.93625 -8 9 C-7.04270084 7.87411986 -6.08412105 6.7493285 -5.125 5.625 C-4.59132813 4.99851562 -4.05765625 4.37203125 -3.5078125 3.7265625 C-2.38567993 2.44163349 -1.20628025 1.20628025 0 0 Z " fill="#232425" transform="translate(437,743)"/>
<path d="M0 0 C3.5371438 0.56132934 4.99261679 1.69557747 7.25 4.4375 C8.03117187 5.36369141 8.03117187 5.36369141 8.828125 6.30859375 C10 8 10 8 10 10 C8 10 8 10 5.4375 7.75 C3.1459603 5.16467316 2.57590568 4.22507181 2 1 C1.34 0.67 0.68 0.34 0 0 Z " fill="#DFE0E3" transform="translate(411,710)"/>
<path d="M0 0 C2.13181214 3.74287627 1.95685425 5.78984129 1 10 C0.34 10 -0.32 10 -1 10 C-1.66 11.98 -2.32 13.96 -3 16 C-4.49828872 12.11764181 -3.43110582 9.56550712 -2.0625 5.75 C-1.68222656 4.67234375 -1.30195312 3.5946875 -0.91015625 2.484375 C-0.45962891 1.25460937 -0.45962891 1.25460937 0 0 Z " fill="#3D3E3F" transform="translate(976,694)"/>
<path d="M0 0 C2.1385485 2.1385485 2.42655063 3.13275314 3 6 C-1.75 9 -1.75 9 -4 9 C-2.80100302 5.9168649 -1.52299523 2.93720508 0 0 Z " fill="#D6D7DB" transform="translate(312,425)"/>
<path d="M0 0 C0.99 0.33 1.98 0.66 3 1 C2.07038578 2.15224028 1.1309875 3.29659176 0.1875 4.4375 C-0.59560547 5.39462891 -0.59560547 5.39462891 -1.39453125 6.37109375 C-3 8 -3 8 -6 9 C-4.68775452 5.06326356 -3.08089673 2.77280706 0 0 Z " fill="#121315" transform="translate(945,880)"/>
<path d="M0 0 C3.23891184 1.04788324 5.57636566 2.3579313 8.125 4.5625 C10.80604196 7.14217763 10.80604196 7.14217763 14 8 C13.67 8.66 13.34 9.32 13 10 C9.11645706 9.42993865 7.10304001 7.61062485 4.25 5 C3.45078125 4.278125 2.6515625 3.55625 1.828125 2.8125 C1.22484375 2.214375 0.6215625 1.61625 0 1 C0 0.67 0 0.34 0 0 Z " fill="#DDDEE0" transform="translate(470,668)"/>
<path d="M0 0 C0.66 0.66 1.32 1.32 2 2 C-1 5 -4 8 -7 11 C-7.33 10.01 -7.66 9.02 -8 8 C-5.36 5.36 -2.72 2.72 0 0 Z " fill="#0F1010" transform="translate(767,498)"/>
<path d="M0 0 C2.95929119 2.75520215 5.03681826 5.46627288 7 9 C4 9 4 9 1.25 6.75 C-1 4 -1 4 -0.8125 1.6875 C-0.4103125 0.8521875 -0.4103125 0.8521875 0 0 Z " fill="#D7D8DA" transform="translate(564,471)"/>
<path d="M0 0 C0.99 0.33 1.98 0.66 3 1 C3 1.66 3 2.32 3 3 C3.66 3 4.32 3 5 3 C5 3.66 5 4.32 5 5 C6.32 5.66 7.64 6.32 9 7 C8.01 7.66 7.02 8.32 6 9 C4.99406757 7.8803014 3.9954151 6.7540588 3 5.625 C2.443125 4.99851562 1.88625 4.37203125 1.3125 3.7265625 C0 2 0 2 0 0 Z " fill="#DEE0E3" transform="translate(833,450)"/>
<path d="M0 0 C0.66 0.33 1.32 0.66 2 1 C1.875 2.75 1.875 2.75 1 5 C-2.0625 7.25 -2.0625 7.25 -5 9 C-5 4.61031544 -2.87194899 3.23094261 0 0 Z " fill="#111212" transform="translate(298,326)"/>
<path d="M0 0 C0.99 0 1.98 0 3 0 C5.25 2.75 5.25 2.75 7 6 C6.609375 8.203125 6.609375 8.203125 6 10 C4.99421411 8.71283353 3.99553202 7.42011342 3 6.125 C2.443125 5.40570313 1.88625 4.68640625 1.3125 3.9453125 C0 2 0 2 0 0 Z " fill="#E7E9EA" transform="translate(954,322)"/>
<path d="M0 0 C0.66 0.66 1.32 1.32 2 2 C1.01 3.1446875 1.01 3.1446875 0 4.3125 C-2.29850538 6.84277939 -2.29850538 6.84277939 -2 10 C-3.32 8.68 -4.64 7.36 -6 6 C-4.02 4.02 -2.04 2.04 0 0 Z " fill="#E0E1E3" transform="translate(403,872)"/>
<path d="M0 0 C0.99 0.495 0.99 0.495 2 1 C2 1.99 2 2.98 2 4 C4.97 4.495 4.97 4.495 8 5 C8.33 5.99 8.66 6.98 9 8 C4.545 7.01 4.545 7.01 0 6 C0 4.02 0 2.04 0 0 Z " fill="#CFCFD0" transform="translate(269,547)"/>
<path d="M0 0 C0.33 0.66 0.66 1.32 1 2 C0.01 3.485 0.01 3.485 -1 5 C-1.66 5 -2.32 5 -3 5 C-3 5.66 -3 6.32 -3 7 C-4.95927063 8.7143618 -6.95880212 10.38405168 -9 12 C-9.66 11.67 -10.32 11.34 -11 11 C-7.37 7.37 -3.74 3.74 0 0 Z " fill="#121414" transform="translate(649,528)"/>
<path d="M0 0 C3.60296594 -0.41176754 4.78402067 -0.1535853 7.8125 2 C8.534375 2.66 9.25625 3.32 10 4 C9.67 4.99 9.34 5.98 9 7 C7.4972763 6.02501855 5.99788037 5.04490611 4.5 4.0625 C3.6646875 3.51722656 2.829375 2.97195313 1.96875 2.41015625 C1.3190625 1.94480469 0.669375 1.47945313 0 1 C0 0.67 0 0.34 0 0 Z " fill="#E1E1E4" transform="translate(862,477)"/>
<path d="M0 0 C0.66 0.33 1.32 0.66 2 1 C2 1.99 2 2.98 2 4 C-0.35438733 5.42944945 -1.48032433 6.08661261 -4.25 5.625 C-4.8275 5.41875 -5.405 5.2125 -6 5 C-4.02 3.35 -2.04 1.7 0 0 Z " fill="#DEDFE1" transform="translate(422,301)"/>
<path d="M0 0 C0.66 0.33 1.32 0.66 2 1 C0.4375 3.4375 0.4375 3.4375 -2 6 C-5.75 6.8125 -5.75 6.8125 -9 7 C-6.3765992 4.08511023 -3.28183606 2.11496102 0 0 Z " fill="#262627" transform="translate(817,909)"/>
<path d="M0 0 C0.99 0.33 1.98 0.66 3 1 C0.36 3.64 -2.28 6.28 -5 9 C-5.33 8.01 -5.66 7.02 -6 6 C-4 4 -2 2 0 0 Z " fill="#D4D6D8" transform="translate(374,805)"/>
<path d="M0 0 C0.99 0.66 1.98 1.32 3 2 C-1.39453125 6.00390625 -1.39453125 6.00390625 -3 7 C-3.99 6.67 -4.98 6.34 -6 6 C-4.02 4.02 -2.04 2.04 0 0 Z " fill="#151616" transform="translate(401,780)"/>
<path d="M0 0 C0.66 0 1.32 0 2 0 C1.65120368 3.25543229 0.97866739 4.01873107 -1.5625 6.25 C-2.366875 6.8275 -3.17125 7.405 -4 8 C-4.66 7.34 -5.32 6.68 -6 6 C-5.01 5.67 -4.02 5.34 -3 5 C-1.8499169 3.03327085 -1.8499169 3.03327085 -1 1 C-0.67 0.67 -0.34 0.34 0 0 Z " fill="#D8D9DB" transform="translate(503,673)"/>
<path d="M0 0 C0.49230769 6.4 0.49230769 6.4 -2 9.4375 C-2.99 10.2109375 -2.99 10.2109375 -4 11 C-3.8864371 9.35333797 -3.75882619 7.70763918 -3.625 6.0625 C-3.55539062 5.14597656 -3.48578125 4.22945312 -3.4140625 3.28515625 C-3.27742187 2.53105469 -3.14078125 1.77695312 -3 1 C-1 0 -1 0 0 0 Z " fill="#121313" transform="translate(988,651)"/>
<path d="M0 0 C0.66 0.66 1.32 1.32 2 2 C-0.31 4.31 -2.62 6.62 -5 9 C-5.66 8.34 -6.32 7.68 -7 7 C-5.625 5 -5.625 5 -4 3 C-3.34 3 -2.68 3 -2 3 C-2 2.34 -2 1.68 -2 1 C-1.34 0.67 -0.68 0.34 0 0 Z " fill="#0E0E0E" transform="translate(686,581)"/>
<path d="M0 0 C0.99 0.33 1.98 0.66 3 1 C1.02 3.31 -0.96 5.62 -3 8 C-3.66 7.67 -4.32 7.34 -5 7 C-5 6.34 -5 5.68 -5 5 C-4.34 5 -3.68 5 -3 5 C-2.5359375 4.0409375 -2.5359375 4.0409375 -2.0625 3.0625 C-1 1 -1 1 0 0 Z " fill="#DDDFE0" transform="translate(712,460)"/>
<path d="M0 0 C-0.34879632 3.25543229 -1.02133261 4.01873107 -3.5625 6.25 C-4.366875 6.8275 -5.17125 7.405 -6 8 C-6 4 -6 4 -4.125 1.75 C-2 0 -2 0 0 0 Z " fill="#DFE0E2" transform="translate(723,451)"/>
<path d="M0 0 C0.66 0.33 1.32 0.66 2 1 C0.15794162 3.54379491 -1.72478134 5.83312509 -4 8 C-4.66 7.67 -5.32 7.34 -6 7 C-6.33 7.66 -6.66 8.32 -7 9 C-7 6 -7 6 -5.46875 4.39453125 C-4.49421875 3.61142578 -4.49421875 3.61142578 -3.5 2.8125 C-2.8503125 2.28269531 -2.200625 1.75289063 -1.53125 1.20703125 C-1.0259375 0.80871094 -0.520625 0.41039062 0 0 Z " fill="#DBDCDD" transform="translate(414,307)"/>
<path d="M0 0 C-0.99 0.33 -1.98 0.66 -3 1 C-3.33 1.66 -3.66 2.32 -4 3 C-7.63 3 -11.26 3 -15 3 C-12.41464321 1.27642881 -10.96188386 0.55264982 -8.0625 -0.1875 C-7.39347656 -0.36667969 -6.72445312 -0.54585937 -6.03515625 -0.73046875 C-3.75319112 -1.03268678 -2.17973341 -0.68756692 0 0 Z " fill="#404141" transform="translate(716,957)"/>
<path d="M0 0 C0.66 0.66 1.32 1.32 2 2 C0.02 4.31 -1.96 6.62 -4 9 C-4.33 7.68 -4.66 6.36 -5 5 C-2.5625 2.25 -2.5625 2.25 0 0 Z " fill="#131315" transform="translate(957,867)"/>
<path d="M0 0 C0.66 0.99 1.32 1.98 2 3 C0.35 5.64 -1.3 8.28 -3 11 C-3.66 10.67 -4.32 10.34 -5 10 C-3.66511872 6.40608886 -2.03977277 3.24509304 0 0 Z " fill="#1C1D1E" transform="translate(934,789)"/>
<path d="M0 0 C2.45354848 0.98141939 3.79646768 1.72245592 5.375 3.875 C6 6 6 6 5.0390625 8.1328125 C4.52472656 9.05707031 4.52472656 9.05707031 4 10 C3.3310968 8.52184338 2.66493641 7.04244528 2 5.5625 C1.62875 4.73878906 1.2575 3.91507813 0.875 3.06640625 C0 1 0 1 0 0 Z " fill="#E1E3E7" transform="translate(577,783)"/>
<path d="M0 0 C5.75 1.875 5.75 1.875 8 3 C8 3.99 8 4.98 8 6 C2.25 4.125 2.25 4.125 0 3 C0 2.01 0 1.02 0 0 Z " fill="#101011" transform="translate(329,575)"/>
<path d="M0 0 C8.3 2.23461538 8.3 2.23461538 11 4 C11.33 4.99 11.66 5.98 12 7 C7.39104317 5.68315519 3.85859765 3.84801255 0 1 C0 0.67 0 0.34 0 0 Z " fill="#CACCCE" transform="translate(945,528)"/>
<path d="M0 0 C0.99 0.33 1.98 0.66 3 1 C1.63016497 4.16115776 1.0109362 4.9927092 -2 7 C-2.66 6.34 -3.32 5.68 -4 5 C-2.68 3.35 -1.36 1.7 0 0 Z " fill="#DEE0E4" transform="translate(348,372)"/>
<path d="M0 0 C0.99 0.33 1.98 0.66 3 1 C1.35 2.98 -0.3 4.96 -2 7 C-2.99 6.67 -3.98 6.34 -5 6 C-3.35 4.02 -1.7 2.04 0 0 Z " fill="#DBDCDE" transform="translate(899,366)"/>
<path d="M0 0 C3.0831351 1.19899698 6.06279492 2.47700477 9 4 C8.67 4.66 8.34 5.32 8 6 C4 6 4 6 1.75 4.125 C0 2 0 2 0 0 Z " fill="#F4F5F9" transform="translate(420,327)"/>
<path d="M0 0 C1.32 0.33 2.64 0.66 4 1 C4 3.31 4 5.62 4 8 C3.01 8 2.02 8 1 8 C0.67 5.36 0.34 2.72 0 0 Z " fill="#DFDFE2" transform="translate(694,264)"/>
<path d="M0 0 C-1 2 -1 2 -3.9375 3.1875 C-7 4 -7 4 -9 3 C-9.33 3.66 -9.66 4.32 -10 5 C-10.99 4.34 -11.98 3.68 -13 3 C-11.21189234 2.30329584 -9.41937948 1.61788811 -7.625 0.9375 C-6.62726563 0.55464844 -5.62953125 0.17179687 -4.6015625 -0.22265625 C-2 -1 -2 -1 0 0 Z " fill="#C4C5C7" transform="translate(510,256)"/>
<path d="M0 0 C0.53625 0.226875 1.0725 0.45375 1.625 0.6875 C1.625 1.3475 1.625 2.0075 1.625 2.6875 C-6.125 3.8125 -6.125 3.8125 -8.375 2.6875 C-2.95961538 -0.38942308 -2.95961538 -0.38942308 0 0 Z " fill="#D0D0D3" transform="translate(786.375,997.3125)"/>
<path d="M0 0 C-3.21182149 1.90608098 -5.53882603 2.22266247 -9.25 2.125 C-10.14203125 2.10695313 -11.0340625 2.08890625 -11.953125 2.0703125 C-12.96632813 2.03550781 -12.96632813 2.03550781 -14 2 C-14 1.67 -14 1.34 -14 1 C-8.83430559 -0.79217969 -5.48946087 -1.12029814 0 0 Z " fill="#C5C6C7" transform="translate(672,964)"/>
<path d="M0 0 C2.31 1.98 4.62 3.96 7 6 C6.67 6.66 6.34 7.32 6 8 C4.35 7.67 2.7 7.34 1 7 C0.67 4.69 0.34 2.38 0 0 Z " fill="#242427" transform="translate(840,756)"/>
<path d="M0 0 C0.66 0 1.32 0 2 0 C2.99 3.3 3.98 6.6 5 10 C2.5 8.9375 2.5 8.9375 0 7 C-0.3125 3.3125 -0.3125 3.3125 0 0 Z " fill="#CACBCD" transform="translate(217,728)"/>
<path d="M0 0 C1.9375 1.125 1.9375 1.125 4 3 C4.75 6.1875 4.75 6.1875 5 9 C3.0625 8.4375 3.0625 8.4375 1 7 C0.25 3.375 0.25 3.375 0 0 Z " fill="#E8EAEB" transform="translate(213,719)"/>
<path d="M0 0 C3.25543229 0.34879632 4.01873107 1.02133261 6.25 3.5625 C6.8275 4.366875 7.405 5.17125 8 6 C6.68 6 5.36 6 4 6 C4 5.34 4 4.68 4 4 C2.68 3.34 1.36 2.68 0 2 C0 1.34 0 0.68 0 0 Z " fill="#E7E8ED" transform="translate(708,720)"/>
<path d="M0 0 C3.87132028 0.57352893 6.08172796 2.48704352 9 5 C5.17634026 5 4.12845162 4.77278925 1 3 C0.34 2.67 -0.32 2.34 -1 2 C-0.67 1.34 -0.34 0.68 0 0 Z " fill="#E3E5E7" transform="translate(861,563)"/>
<path d="M0 0 C0 0.99 0 1.98 0 3 C-0.474375 3.45375 -0.94875 3.9075 -1.4375 4.375 C-3.44583349 6.46366683 -3.61869524 8.1783448 -4 11 C-4.66 11 -5.32 11 -6 11 C-6 10.34 -6 9.68 -6 9 C-6.66 8.67 -7.32 8.34 -8 8 C-5.36 5.36 -2.72 2.72 0 0 Z " fill="#CDCECF" transform="translate(723,546)"/>
<path d="M0 0 C0.33 0.99 0.66 1.98 1 3 C-0.40445835 5.2636564 -2.1967913 7.0208685 -4 9 C-4.66 8.01 -5.32 7.02 -6 6 C-4.02 4.02 -2.04 2.04 0 0 Z " fill="#090A0B" transform="translate(820,354)"/>
<path d="M0 0 C0.66 1.32 1.32 2.64 2 4 C-0.97 6.475 -0.97 6.475 -4 9 C-4.66 8.67 -5.32 8.34 -6 8 C-4.02 5.36 -2.04 2.72 0 0 Z " fill="#232424" transform="translate(283,344)"/>
<path d="M0 0 C0.99 0.33 1.98 0.66 3 1 C3.625 3.875 3.625 3.875 4 7 C3.34 7.66 2.68 8.32 2 9 C0.50178941 5.62902617 0 3.79557881 0 0 Z " fill="#DADBDF" transform="translate(690,254)"/>
<path d="M0 0 C0.66 0.33 1.32 0.66 2 1 C0.95125002 3.62187494 0.35068687 4.79371361 -2.125 6.25 C-2.74375 6.4975 -3.3625 6.745 -4 7 C-4.66 6.34 -5.32 5.68 -6 5 C-4.02 3.35 -2.04 1.7 0 0 Z " fill="#E5E6E9" transform="translate(380,246)"/>
<path d="M0 0 C4.8333472 -0.08333357 9.23692563 0.04738513 14 1 C12.25 2.5625 12.25 2.5625 10 4 C7.75 3.6875 7.75 3.6875 6 3 C6 2.34 6 1.68 6 1 C4.02 1.33 2.04 1.66 0 2 C0 1.34 0 0.68 0 0 Z " fill="#BFBFC2" transform="translate(564,1026)"/>
<path d="M0 0 C9.41002278 0.96355353 9.41002278 0.96355353 14 2 C14 2.33 14 2.66 14 3 C12.22992286 3.08114106 10.45877902 3.13925505 8.6875 3.1875 C7.70136719 3.22230469 6.71523438 3.25710938 5.69921875 3.29296875 C3 3 3 3 1.14453125 1.48828125 C0.76683594 0.99714844 0.38914062 0.50601563 0 0 Z " fill="#363838" transform="translate(559,961)"/>
<path d="M0 0 C2.31 1.98 4.62 3.96 7 6 C6.67 6.66 6.34 7.32 6 8 C5.34 8 4.68 8 4 8 C4 7.34 4 6.68 4 6 C3.01 5.67 2.02 5.34 1 5 C0.67 3.35 0.34 1.7 0 0 Z " fill="#27272A" transform="translate(847,763)"/>
<path d="M0 0 C3.57104439 1.87949705 5.54744301 3.17053157 7 7 C4 7 4 7 2.61328125 5.6875 C1.40885417 4.125 0.20442708 2.5625 -1 1 C-0.67 0.67 -0.34 0.34 0 0 Z " fill="#101012" transform="translate(549,552)"/>
<path d="M0 0 C-3.465 2.97 -3.465 2.97 -7 6 C-7 3 -7 3 -6 0 C-3 -1 -3 -1 0 0 Z " fill="#0F1012" transform="translate(734,536)"/>
<path d="M0 0 C3.36720387 1.39332574 4.9859524 2.9789286 7 6 C4 6 4 6 1 5 C-0.1875 2.9375 -0.1875 2.9375 -1 1 C-0.67 0.67 -0.34 0.34 0 0 Z " fill="#E0E1E3" transform="translate(357,361)"/>
<path d="M0 0 C2 3 2 3 2 5 C-1.63 5 -5.26 5 -9 5 C-9 4.67 -9 4.34 -9 4 C-8.071875 3.855625 -7.14375 3.71125 -6.1875 3.5625 C-2.99274889 3.07899889 -2.99274889 3.07899889 0 2 C0 1.34 0 0.68 0 0 Z " fill="#C4C6C7" transform="translate(585,960)"/>
<path d="M0 0 C0.66 0.33 1.32 0.66 2 1 C1.67 1.66 1.34 2.32 1 3 C0.01 3 -0.98 3 -2 3 C-2.33 3.99 -2.66 4.98 -3 6 C-4.65 5.67 -6.3 5.34 -8 5 C-5.45378681 2.99940392 -3.01962385 1.20784954 0 0 Z " fill="#2F3031" transform="translate(786,927)"/>
<path d="M0 0 C3.36720387 1.39332574 4.9859524 2.9789286 7 6 C6.01 6.495 6.01 6.495 5 7 C4.34 6.67 3.68 6.34 3 6 C3 5.34 3 4.68 3 4 C2.34 4 1.68 4 1 4 C1 3.34 1 2.68 1 2 C0.34 1.67 -0.32 1.34 -1 1 C-0.67 0.67 -0.34 0.34 0 0 Z " fill="#E0E1E4" transform="translate(321,898)"/>
<path d="M0 0 C2.31 1.98 4.62 3.96 7 6 C6.34 6.66 5.68 7.32 5 8 C3.02 6.35 1.04 4.7 -1 3 C-0.67 2.01 -0.34 1.02 0 0 Z " fill="#0F0F10" transform="translate(879,796)"/>
<path d="M0 0 C0.66 0.66 1.32 1.32 2 2 C-0.57784846 4.64752004 -2.91648098 6.94432065 -6 9 C-6 6 -6 6 -4.6875 4.39453125 C-4.130625 3.87246094 -3.57375 3.35039063 -3 2.8125 C-2.443125 2.28269531 -1.88625 1.75289062 -1.3125 1.20703125 C-0.6628125 0.60955078 -0.6628125 0.60955078 0 0 Z " fill="#101113" transform="translate(414,767)"/>
<path d="M0 0 C5.75 1.75 5.75 1.75 8 4 C7.34 4.66 6.68 5.32 6 6 C3.50638429 4.79618552 1.31856917 3.54571278 -1 2 C-0.67 1.34 -0.34 0.68 0 0 Z " fill="#E1E3E7" transform="translate(305,641)"/>
<path d="M0 0 C0.99 0.33 1.98 0.66 3 1 C4.1875 4.0625 4.1875 4.0625 5 7 C2.36 5.35 -0.28 3.7 -3 2 C-2.01 1.34 -1.02 0.68 0 0 Z " fill="#DDDFE2" transform="translate(401,611)"/>
<path d="M0 0 C0.66 0.66 1.32 1.32 2 2 C0.02 4.31 -1.96 6.62 -4 9 C-4.66 8.67 -5.32 8.34 -6 8 C-2.25 2.25 -2.25 2.25 0 0 Z " fill="#E5E9EC" transform="translate(713,557)"/>
<path d="M0 0 C0 3.20395416 -0.74335022 5.09399739 -2 8 C-3.65 8 -5.3 8 -7 8 C-6.02133662 6.85373678 -5.04205413 5.70800212 -4.0625 4.5625 C-3.51722656 3.92441406 -2.97195313 3.28632813 -2.41015625 2.62890625 C-1.63204305 1.73008851 -0.84063472 0.84063472 0 0 Z " fill="#111111" transform="translate(721,455)"/>
<path d="M0 0 C0.6875 1.6875 0.6875 1.6875 1 4 C0.04906703 5.69514137 -0.95107762 7.36368108 -2 9 C-2 9.99 -2 10.98 -2 12 C-2.99 11.67 -3.98 11.34 -5 11 C-3.55049545 7.2089881 -1.84827434 3.6125362 0 0 Z " fill="#262728" transform="translate(250,395)"/>
<path d="M0 0 C0.66 0 1.32 0 2 0 C0.50902342 3.7952131 -1.75700849 5.61042731 -5 8 C-5.33 7.01 -5.66 6.02 -6 5 C-5.01 5 -4.02 5 -3 5 C-2.5359375 4.0409375 -2.5359375 4.0409375 -2.0625 3.0625 C-1 1 -1 1 0 0 Z " fill="#CCCCCE" transform="translate(783,389)"/>
<path d="M0 0 C4 4.5 4 4.5 4 9 C1.4375 6.75 1.4375 6.75 -1 4 C-0.8125 1.6875 -0.8125 1.6875 0 0 Z " fill="#191A1A" transform="translate(725,328)"/>
<path d="M0 0 C3.465 1.485 3.465 1.485 7 3 C5 5 5 5 2 6 C2 5.34 2 4.68 2 4 C1.01 3.67 0.02 3.34 -1 3 C-0.67 2.01 -0.34 1.02 0 0 Z " fill="#E6E7EB" transform="translate(843,312)"/>
<path d="M0 0 C4.46840411 0.49648935 5.68987756 0.68987756 9 4 C5.7 3.67 2.4 3.34 -1 3 C-0.67 2.01 -0.34 1.02 0 0 Z " fill="#E4E6E8" transform="translate(812,290)"/>
<path d="M0 0 C2 1 2 1 3 3 C0.03 3.66 -2.94 4.32 -6 5 C-6 4.34 -6 3.68 -6 3 C-4.03533587 1.93224776 -2.03144641 0.93446535 0 0 Z " fill="#E7E8E9" transform="translate(705,955)"/>
<path d="M0 0 C-0.66 0.66 -1.32 1.32 -2 2 C-2.66 2 -3.32 2 -4 2 C-5.62514468 3.45833358 -5.62514468 3.45833358 -7 5 C-7.99 4.34 -8.98 3.68 -10 3 C-3.375 -1.125 -3.375 -1.125 0 0 Z " fill="#1F2020" transform="translate(777,934)"/>
<path d="M0 0 C1.875 0.3125 1.875 0.3125 4 1 C4.66 1.99 5.32 2.98 6 4 C5.34 4.66 4.68 5.32 4 6 C3.01 6 2.02 6 1 6 C1.33 4.35 1.66 2.7 2 1 C1.34 0.67 0.68 0.34 0 0 Z " fill="#E5E6E8" transform="translate(344,920)"/>
<path d="M0 0 C0 3.19219704 -0.23605791 4.39608549 -2 7 C-4.625 8.25 -4.625 8.25 -7 9 C-6.02180976 7.68677212 -5.0424189 6.37443848 -4.0625 5.0625 C-3.51722656 4.33160156 -2.97195313 3.60070312 -2.41015625 2.84765625 C-1 1 -1 1 0 0 Z " fill="#DBDCDF" transform="translate(958,869)"/>
<path d="M0 0 C1.65 1.32 3.3 2.64 5 4 C4.67 4.99 4.34 5.98 4 7 C2.35 5.68 0.7 4.36 -1 3 C-0.67 2.01 -0.34 1.02 0 0 Z " fill="#161616" transform="translate(290,859)"/>
<path d="M0 0 C0.99 0.33 1.98 0.66 3 1 C1.35 2.65 -0.3 4.3 -2 6 C-2.66 5.34 -3.32 4.68 -4 4 C-2.68 2.68 -1.36 1.36 0 0 Z " fill="#08080A" transform="translate(477,792)"/>
<path d="M0 0 C0.66 0 1.32 0 2 0 C2.625 2.3125 2.625 2.3125 3 5 C2.01 6.485 2.01 6.485 1 8 C-0.42944945 5.64561267 -1.08661261 4.51967567 -0.625 1.75 C-0.41875 1.1725 -0.2125 0.595 0 0 Z " fill="#D6D8DA" transform="translate(229,760)"/>
<path d="M0 0 C3.16115776 1.36983503 3.9927092 1.9890638 6 5 C4.68 5 3.36 5 2 5 C0.25 3 0.25 3 -1 1 C-0.67 0.67 -0.34 0.34 0 0 Z " fill="#DFE0E3" transform="translate(671,681)"/>
<path d="M0 0 C0.33 0 0.66 0 1 0 C1.25 2.25 1.25 2.25 1 5 C-1 7.3125 -1 7.3125 -3 9 C-2.67 6.69 -2.34 4.38 -2 2 C-1.34 2 -0.68 2 0 2 C0 1.34 0 0.68 0 0 Z " fill="#1A1A1B" transform="translate(984,668)"/>
<path d="M0 0 C1.98 1.65 3.96 3.3 6 5 C5.01 6.485 5.01 6.485 4 8 C3.67 7.01 3.34 6.02 3 5 C2.01 4.67 1.02 4.34 0 4 C0 2.68 0 1.36 0 0 Z " fill="#282827" transform="translate(695,609)"/>
<path d="M0 0 C3.79588866 0.54226981 5.47211993 2.20127563 8 5 C6.68 5 5.36 5 4 5 C1.75 2.5 1.75 2.5 0 0 Z " fill="#2A2B2B" transform="translate(578,584)"/>
<path d="M0 0 C2.78211944 0.37596209 4.5879284 0.67318459 6.8125 2.4375 C8 4 8 4 8 6 C6.68 5.34 5.36 4.68 4 4 C4 3.34 4 2.68 4 2 C3.01 2.33 2.02 2.66 1 3 C0.67 2.01 0.34 1.02 0 0 Z " fill="#E2E4E7" transform="translate(841,550)"/>
<path d="M0 0 C3.16115776 1.36983503 3.9927092 1.9890638 6 5 C5.34 5.66 4.68 6.32 4 7 C2 5.1875 2 5.1875 0 3 C0 2.01 0 1.02 0 0 Z " fill="#E2E3E5" transform="translate(493,499)"/>
<path d="M0 0 C3.875 1.75 3.875 1.75 5 4 C5.039992 5.99960012 5.04346799 8.00047242 5 10 C2.90217213 7.90217213 2.3490604 6.6200793 1.375 3.875 C1.11460937 3.15054687 0.85421875 2.42609375 0.5859375 1.6796875 C0.39257812 1.12539063 0.19921875 0.57109375 0 0 Z " fill="#E3E4E7" transform="translate(1014,416)"/>
<path d="M0 0 C4.875 2.75 4.875 2.75 6 5 C5.01 5.99 4.02 6.98 3 8 C2 7 2 7 1.9375 4.4375 C1.958125 3.633125 1.97875 2.82875 2 2 C1.34 2 0.68 2 0 2 C0 1.34 0 0.68 0 0 Z " fill="#E8E9ED" transform="translate(968,338)"/>
<path d="M0 0 C0.99 0.33 1.98 0.66 3 1 C3 1.66 3 2.32 3 3 C3.66 3.66 4.32 4.32 5 5 C4.34 5 3.68 5 3 5 C2.67 5.99 2.34 6.98 2 8 C0 6 0 6 -0.125 2.875 C-0.08375 1.92625 -0.0425 0.9775 0 0 Z " fill="#E6E7EC" transform="translate(834,218)"/>
<path d="M0 0 C0 0.66 0 1.32 0 2 C-1.98 2.99 -1.98 2.99 -4 4 C-4 4.66 -4 5.32 -4 6 C-4.99 6 -5.98 6 -7 6 C-7 5.01 -7 4.02 -7 3 C-2.77777778 0 -2.77777778 0 0 0 Z " fill="#D7D7DA" transform="translate(818,982)"/>
<path d="M0 0 C0.33 0.66 0.66 1.32 1 2 C1.9590625 2.2165625 1.9590625 2.2165625 2.9375 2.4375 C5 3 5 3 7 6 C3.75791433 5.64950425 2.38472296 5.43778819 0.1875 2.9375 C-0.4003125 1.9784375 -0.4003125 1.9784375 -1 1 C-0.67 0.67 -0.34 0.34 0 0 Z " fill="#1F1F1F" transform="translate(334,907)"/>
<path d="M0 0 C0.66 0.33 1.32 0.66 2 1 C1 4 1 4 -1.4375 5.25 C-4 6 -4 6 -6 5 C-4.02 3.35 -2.04 1.7 0 0 Z " fill="#1D1E1F" transform="translate(846,888)"/>
<path d="M0 0 C1.32 1.65 2.64 3.3 4 5 C3.01 6.485 3.01 6.485 2 8 C0.4375 6.25 0.4375 6.25 -1 4 C-0.6875 1.75 -0.6875 1.75 0 0 Z " fill="#DFE0E3" transform="translate(532,845)"/>
<path d="M0 0 C0.66 0 1.32 0 2 0 C2 0.66 2 1.32 2 2 C2.66 2 3.32 2 4 2 C3.67 3.65 3.34 5.3 3 7 C1.68 5.68 0.36 4.36 -1 3 C-0.67 2.01 -0.34 1.02 0 0 Z " fill="#141517" transform="translate(275,839)"/>
<path d="M0 0 C0.66 1.32 1.32 2.64 2 4 C1.01 5.485 1.01 5.485 0 7 C-1.32 6.67 -2.64 6.34 -4 6 C-2.68 4.02 -1.36 2.04 0 0 Z " fill="#D1D2D5" transform="translate(987,829)"/>
<path d="M0 0 C1.875 0.25 1.875 0.25 4 1 C5.25 3.0625 5.25 3.0625 6 5 C3 5 3 5 1.3125 3.625 C0 2 0 2 0 0 Z " fill="#E4E4E6" transform="translate(897,812)"/>
<path d="M0 0 C1.98 1.65 3.96 3.3 6 5 C5.67 5.66 5.34 6.32 5 7 C4.01 6.67 3.02 6.34 2 6 C2 5.34 2 4.68 2 4 C1.34 4 0.68 4 0 4 C0 2.68 0 1.36 0 0 Z " fill="#0F0F11" transform="translate(886,803)"/>
<path d="M0 0 C2.79872437 2.52788007 4.45773019 4.20411134 5 8 C4.01 8 3.02 8 2 8 C-0.1519437 4.77208445 -0.20086443 3.71599191 0 0 Z " fill="#1E1D1E" transform="translate(582,794)"/>
<path d="M0 0 C0.33 0.99 0.66 1.98 1 3 C-1.31 4.98 -3.62 6.96 -6 9 C-6.66 8.67 -7.32 8.34 -8 8 C-5.36 5.36 -2.72 2.72 0 0 Z " fill="#272729" transform="translate(394,787)"/>
<path d="M0 0 C4.8 2.46153846 4.8 2.46153846 5.8125 5.1875 C5.874375 5.785625 5.93625 6.38375 6 7 C3 5.1875 3 5.1875 0 3 C0 2.01 0 1.02 0 0 Z " fill="#D8DADB" transform="translate(436,732)"/>
<path d="M0 0 C0.99 0.66 1.98 1.32 3 2 C2.34 3.98 1.68 5.96 1 8 C0.01 8 -0.98 8 -2 8 C-1.34 5.36 -0.68 2.72 0 0 Z " fill="#2B2B2C" transform="translate(971,710)"/>
<path d="M0 0 C3.79588866 0.54226981 5.47211993 2.20127563 8 5 C6.125 5.625 6.125 5.625 4 6 C3.34 5.34 2.68 4.68 2 4 C2 3.01 2 2.02 2 1 C1.34 0.67 0.68 0.34 0 0 Z " fill="#E1E2E4" transform="translate(395,697)"/>
<path d="M0 0 C2 0 2 0 4.125 2 C4.74375 2.66 5.3625 3.32 6 4 C5.67 4.99 5.34 5.98 5 7 C3.02 5.35 1.04 3.7 -1 2 C-0.67 1.34 -0.34 0.68 0 0 Z " fill="#0C0C0D" transform="translate(682,688)"/>
<path d="M0 0 C0.33 0 0.66 0 1 0 C1.33 3.63 1.66 7.26 2 11 C0 10 0 10 -1 9 C-0.91062197 7.47480724 -0.75462854 5.95318071 -0.5625 4.4375 C-0.46066406 3.61121094 -0.35882813 2.78492188 -0.25390625 1.93359375 C-0.17011719 1.29550781 -0.08632813 0.65742187 0 0 Z " fill="#131315" transform="translate(267,644)"/>
<path d="M0 0 C1.16959987 0.97566112 2.33561177 1.955625 3.5 2.9375 C4.1496875 3.48277344 4.799375 4.02804687 5.46875 4.58984375 C5.9740625 5.05519531 6.479375 5.52054688 7 6 C7 6.33 7 6.66 7 7 C5.35 7 3.7 7 2 7 C2.33 6.01 2.66 5.02 3 4 C2.01 3.67 1.02 3.34 0 3 C0 2.01 0 1.02 0 0 Z " fill="#1F1F1F" transform="translate(682,596)"/>
<path d="M0 0 C1.98 0 3.96 0 6 0 C6.66 1.65 7.32 3.3 8 5 C4.62496331 3.8141763 2.35277269 2.72426311 0 0 Z " fill="#1F2022" transform="translate(850,554)"/>
<path d="M0 0 C-0.66 0.66 -1.32 1.32 -2 2 C-5.125 1.625 -5.125 1.625 -8 1 C-8 0.34 -8 -0.32 -8 -1 C-4.37673261 -2.2077558 -3.35853631 -1.54311128 0 0 Z " fill="#D2D4D7" transform="translate(973,538)"/>
<path d="M0 0 C2.88437779 1.29299694 4.87219421 2.65941363 7 5 C6.01 5.495 6.01 5.495 5 6 C5 5.34 5 4.68 5 4 C3.35 3.67 1.7 3.34 0 3 C0 2.01 0 1.02 0 0 Z " fill="#E5E6E9" transform="translate(814,528)"/>
<path d="M0 0 C0.33 1.32 0.66 2.64 1 4 C-0.8125 5.5625 -0.8125 5.5625 -3 7 C-3.99 6.67 -4.98 6.34 -6 6 C-4.02 4.02 -2.04 2.04 0 0 Z " fill="#CCCED1" transform="translate(834,432)"/>
<path d="M0 0 C4 4.625 4 4.625 4 8 C3.01 8.495 3.01 8.495 2 9 C0.14223235 5.86501708 -0.20140476 3.62528568 0 0 Z " fill="#E1E3E6" transform="translate(1002,389)"/>
<path d="M0 0 C2.31 1.98 4.62 3.96 7 6 C6.34 6.66 5.68 7.32 5 8 C2.5 5.6875 2.5 5.6875 0 3 C0 2.01 0 1.02 0 0 Z " fill="#1F1F20" transform="translate(477,387)"/>
<path d="M0 0 C1.875 0.1875 1.875 0.1875 4 1 C5.25 3.5625 5.25 3.5625 6 6 C5.01 6 4.02 6 3 6 C0 1.66666667 0 1.66666667 0 0 Z " fill="#E8E9EC" transform="translate(927,292)"/>
<path d="M0 0 C1.0625 1.8125 1.0625 1.8125 2 4 C1.67 4.99 1.34 5.98 1 7 C0.01 6.67 -0.98 6.34 -2 6 C-1.125 1.125 -1.125 1.125 0 0 Z " fill="#E0E1E4" transform="translate(886,252)"/>
<path d="M0 0 C6.75 0.75 6.75 0.75 9 3 C6.21176345 4.0326802 5.1322726 4.04509293 2.25 3.0625 C1.5075 2.711875 0.765 2.36125 0 2 C0 1.34 0 0.68 0 0 Z " fill="#E2E3E6" transform="translate(447,989)"/>
<path d="M0 0 C2.31 0 4.62 0 7 0 C7 1.32 7 2.64 7 4 C4.08482708 2.92598892 2.22189824 2.22189824 0 0 Z " fill="#DADBDE" transform="translate(445,914)"/>
<path d="M0 0 C0.66 0.66 1.32 1.32 2 2 C-0.97 4.475 -0.97 4.475 -4 7 C-4.33 6.34 -4.66 5.68 -5 5 C-3.35 3.35 -1.7 1.7 0 0 Z " fill="#151517" transform="translate(916,910)"/>
<path d="M0 0 C0.66 0.33 1.32 0.66 2 1 C-1.44615385 5.8 -1.44615385 5.8 -4.25 6.8125 C-5.11625 6.9053125 -5.11625 6.9053125 -6 7 C-4.60667426 3.63279613 -3.0210714 2.0140476 0 0 Z " fill="#171718" transform="translate(833,898)"/>
<path d="M0 0 C0.99 0 1.98 0 3 0 C4.85776765 3.13498292 5.20140476 5.37471432 5 9 C2.82615436 6.82615436 1.47801239 4.68729526 0 2 C0 1.34 0 0.68 0 0 Z " fill="#E0E2E4" transform="translate(257,818)"/>
<path d="M0 0 C1.98 1.65 3.96 3.3 6 5 C5.34 5.66 4.68 6.32 4 7 C2.35 5.35 0.7 3.7 -1 2 C-0.67 1.34 -0.34 0.68 0 0 Z " fill="#111112" transform="translate(896,813)"/>
<path d="M0 0 C0.33 0 0.66 0 1 0 C1.36923077 4.55384615 1.36923077 4.55384615 -0.5 6.8125 C-0.995 7.204375 -1.49 7.59625 -2 8 C-2.33 7.01 -2.66 6.02 -3 5 C-1.625 2.3125 -1.625 2.3125 0 0 Z " fill="#E2E4E7" transform="translate(933,786)"/>
<path d="M0 0 C2.4375 0.6875 2.4375 0.6875 5 2 C5.8125 4.625 5.8125 4.625 6 7 C3.95880212 5.38405168 1.95927063 3.7143618 0 2 C0 1.34 0 0.68 0 0 Z " fill="#D2D3D6" transform="translate(865,780)"/>
<path d="M0 0 C1.32 0.33 2.64 0.66 4 1 C4.33 2.65 4.66 4.3 5 6 C4.01 6.495 4.01 6.495 3 7 C2.01 4.69 1.02 2.38 0 0 Z " fill="#E3E4E8" transform="translate(308,768)"/>
<path d="M0 0 C0.33 0.66 0.66 1.32 1 2 C1.66 2.33 2.32 2.66 3 3 C2.34 4.32 1.68 5.64 1 7 C0.01 7 -0.98 7 -2 7 C-1.34 4.69 -0.68 2.38 0 0 Z " fill="#D0D0D2" transform="translate(1022,762)"/>
<path d="M0 0 C0.33 0.99 0.66 1.98 1 3 C-1.97 5.475 -1.97 5.475 -5 8 C-5 7.01 -5 6.02 -5 5 C-4.360625 4.731875 -3.72125 4.46375 -3.0625 4.1875 C-0.66868314 3.11332248 -0.66868314 3.11332248 0 0 Z " fill="#D2D4D4" transform="translate(426,752)"/>
<path d="M0 0 C2.31 1.98 4.62 3.96 7 6 C6.01 6.33 5.02 6.66 4 7 C2 5.1875 2 5.1875 0 3 C0 2.01 0 1.02 0 0 Z " fill="#CBCCCE" transform="translate(702,711)"/>
<path d="M0 0 C2.125 0.9375 2.125 0.9375 4 2 C4 2.99 4 3.98 4 5 C-0.875 3.25 -0.875 3.25 -2 1 C-1.34 0.67 -0.68 0.34 0 0 Z " fill="#161617" transform="translate(362,669)"/>
<path d="M0 0 C2.88437779 1.29299694 4.87219421 2.65941363 7 5 C6.34 5.66 5.68 6.32 5 7 C3.29115995 5.37660195 1.62553283 3.70680947 0 2 C0 1.34 0 0.68 0 0 Z " fill="#E6E8E8" transform="translate(740,653)"/>
<path d="M0 0 C1.32 0.66 2.64 1.32 4 2 C4 2.99 4 3.98 4 5 C2.0625 4.6875 2.0625 4.6875 0 4 C-0.33 3.01 -0.66 2.02 -1 1 C-0.67 0.67 -0.34 0.34 0 0 Z " fill="#141414" transform="translate(434,639)"/>
<path d="M0 0 C3.465 1.485 3.465 1.485 7 3 C6.67 3.66 6.34 4.32 6 5 C4.68 5 3.36 5 2 5 C2 4.34 2 3.68 2 3 C1.34 3 0.68 3 0 3 C0 2.01 0 1.02 0 0 Z " fill="#E5E7E9" transform="translate(929,600)"/>
<path d="M0 0 C3.35595828 0.59927826 5.37801226 1.84622436 8 4 C5 5 5 5 2.3125 3.6875 C1.549375 3.130625 0.78625 2.57375 0 2 C0 1.34 0 0.68 0 0 Z " fill="#DEE1E4" transform="translate(882,576)"/>
<path d="M0 0 C0.66 0.66 1.32 1.32 2 2 C0.35 3.65 -1.3 5.3 -3 7 C-3.66 6.34 -4.32 5.68 -5 5 C-3.35 3.35 -1.7 1.7 0 0 Z " fill="#DCE0E2" transform="translate(696,574)"/>
<path d="M0 0 C0.99 0.33 1.98 0.66 3 1 C1.35 2.65 -0.3 4.3 -2 6 C-2 2 -2 2 0 0 Z " fill="#E4E6E9" transform="translate(696,476)"/>
<path d="M0 0 C1.32 0.33 2.64 0.66 4 1 C3.34 2.98 2.68 4.96 2 7 C1.34 6.67 0.68 6.34 0 6 C0 4.02 0 2.04 0 0 Z " fill="#0C0C0F" transform="translate(292,456)"/>
<path d="M0 0 C2.5 2.3125 2.5 2.3125 5 5 C5 5.99 5 6.98 5 8 C4.34 8 3.68 8 3 8 C0.95830515 5.09451118 0 3.59857954 0 0 Z " fill="#D9DADD" transform="translate(718,434)"/>
<path d="M0 0 C2.37948772 0.17625835 3.70225849 0.69719773 5.37890625 2.40234375 C6.62115486 3.90649092 7.81376056 5.45129851 9 7 C6 7 6 7 3.375 4.625 C1 2 1 2 0 0 Z " fill="#D7D8DB" transform="translate(492,402)"/>
<path d="M0 0 C0.33 0.66 0.66 1.32 1 2 C-0.1875 4.5625 -0.1875 4.5625 -2 7 C-3.32 7.33 -4.64 7.66 -6 8 C-4.02 5.36 -2.04 2.72 0 0 Z " fill="#CFD0D3" transform="translate(355,363)"/>
<path d="M0 0 C0.66 0.99 1.32 1.98 2 3 C0.68 4.32 -0.64 5.64 -2 7 C-2.33 5.35 -2.66 3.7 -3 2 C-2.01 1.34 -1.02 0.68 0 0 Z " fill="#E2E3E5" transform="translate(275,351)"/>
<path d="M0 0 C3.79588866 0.54226981 5.47211993 2.20127563 8 5 C5.125 4.75 5.125 4.75 2 4 C0.625 1.9375 0.625 1.9375 0 0 Z " fill="#E3E3E5" transform="translate(828,300)"/>
<path d="M0 0 C2 1 2 1 3.125 4.0625 C3.41375 5.031875 3.7025 6.00125 4 7 C3.01 7 2.02 7 1 7 C1 6.34 1 5.68 1 5 C0.34 5 -0.32 5 -1 5 C-0.67 3.35 -0.34 1.7 0 0 Z " fill="#1F2020" transform="translate(698,279)"/>
<path d="M0 0 C2.97 0 5.94 0 9 0 C9.33 0.99 9.66 1.98 10 3 C6.7 2.34 3.4 1.68 0 1 C0 0.67 0 0.34 0 0 Z " fill="#D7D8DB" transform="translate(752,189)"/>
<path d="M0 0 C-0.66 1.32 -1.32 2.64 -2 4 C-5 3 -5 3 -8 1 C-5.23735711 0.40267181 -2.83967231 0 0 0 Z " fill="#D5D6D8" transform="translate(734,1016)"/>
<path d="M0 0 C2.875 0.3125 2.875 0.3125 6 1 C6.66 1.99 7.32 2.98 8 4 C7.01 4.33 6.02 4.66 5 5 C3.35 3.35 1.7 1.7 0 0 Z " fill="#232325" transform="translate(353,926)"/>
<path d="M0 0 C1.9375 0.75 1.9375 0.75 4 2 C4.75 4.125 4.75 4.125 5 6 C4.01 6 3.02 6 2 6 C0.3125 3.5 0.3125 3.5 -1 1 C-0.67 0.67 -0.34 0.34 0 0 Z " fill="#121213" transform="translate(515,817)"/>
<path d="M0 0 C1.32 1.32 2.64 2.64 4 4 C1.525 5.485 1.525 5.485 -1 7 C-2 4 -2 4 -1.0625 1.8125 C-0.5365625 0.9153125 -0.5365625 0.9153125 0 0 Z " fill="#DBDCE0" transform="translate(998,811)"/>
<path d="M0 0 C0.66 0.99 1.32 1.98 2 3 C0.515 5.475 0.515 5.475 -1 8 C-1.66 7.01 -2.32 6.02 -3 5 C-2.01 3.35 -1.02 1.7 0 0 Z " fill="#DDDEE1" transform="translate(1004,801)"/>
<path d="M0 0 C0.33 0.66 0.66 1.32 1 2 C1.99 2 2.98 2 4 2 C3.67 2.99 3.34 3.98 3 5 C2.65179959 6.66362417 2.31595508 8.32995171 2 10 C1.67 10 1.34 10 1 10 C0.67 6.7 0.34 3.4 0 0 Z " fill="#B9B9BD" transform="translate(269,654)"/>
<path d="M0 0 C2.6875 0.875 2.6875 0.875 5 2 C3.25 3.125 3.25 3.125 1 4 C-1.25 3.125 -1.25 3.125 -3 2 C-2.01 1.34 -1.02 0.68 0 0 Z " fill="#D1D3D5" transform="translate(907,589)"/>
<path d="M0 0 C2.31 0.66 4.62 1.32 7 2 C6.67 2.66 6.34 3.32 6 4 C3.03 3.505 3.03 3.505 0 3 C0 2.01 0 1.02 0 0 Z " fill="#0C0E0E" transform="translate(303,564)"/>
<path d="M0 0 C2.12508244 3.18762365 2.5020163 5.26512223 3 9 C2.01 9.495 2.01 9.495 1 10 C-0.1577506 6.52674819 -0.06866652 3.63932552 0 0 Z " fill="#CBCCCE" transform="translate(966,478)"/>
<path d="M0 0 C0.66 0.33 1.32 0.66 2 1 C0.92598892 3.91517292 0.22189824 5.77810176 -2 8 C-2.33 7.01 -2.66 6.02 -3 5 C-1.5625 2.3125 -1.5625 2.3125 0 0 Z " fill="#111214" transform="translate(309,426)"/>
<path d="M0 0 C0.99 0.33 1.98 0.66 3 1 C1.35 2.65 -0.3 4.3 -2 6 C-2.33 5.34 -2.66 4.68 -3 4 C-2.01 2.68 -1.02 1.36 0 0 Z " fill="#060709" transform="translate(872,389)"/>
<path d="M0 0 C-1.39332574 3.36720387 -2.9789286 4.9859524 -6 7 C-5.37162381 3.35541809 -4.14650034 0 0 0 Z " fill="#CCCDD0" transform="translate(844,329)"/>
<path d="M0 0 C1.98 0.495 1.98 0.495 4 1 C3.34 2.32 2.68 3.64 2 5 C1.01 5 0.02 5 -1 5 C-0.67 3.35 -0.34 1.7 0 0 Z " fill="#E7E8EA" transform="translate(850,317)"/>
<path d="M0 0 C0.66 0.99 1.32 1.98 2 3 C-0.475 4.485 -0.475 4.485 -3 6 C-3.66 5.34 -4.32 4.68 -5 4 C-4.01 3.67 -3.02 3.34 -2 3 C-2 2.34 -2 1.68 -2 1 C-1.34 0.67 -0.68 0.34 0 0 Z " fill="#171719" transform="translate(414,304)"/>
<path d="M0 0 C0.66 0.33 1.32 0.66 2 1 C-0.57404971 4.86107457 -2.61020259 4.94319692 -7 6 C-4.74259377 3.66475218 -2.7194239 1.81294927 0 0 Z " fill="#C7C8CB" transform="translate(445,285)"/>
<path d="M0 0 C2.31 0 4.62 0 7 0 C6.01 0.495 6.01 0.495 5 1 C5 1.66 5 2.32 5 3 C3.68 3.33 2.36 3.66 1 4 C0.67 2.68 0.34 1.36 0 0 Z " fill="#E5E8EC" transform="translate(766,266)"/>
<path d="M0 0 C0.33 0.99 0.66 1.98 1 3 C-0.98 3.66 -2.96 4.32 -5 5 C-5 4.01 -5 3.02 -5 2 C-3.35 1.34 -1.7 0.68 0 0 Z " fill="#0E0F0F" transform="translate(496,257)"/>
<path d="M0 0 C0.99 0.33 1.98 0.66 3 1 C2.01 2.485 2.01 2.485 1 4 C-1.97 3.505 -1.97 3.505 -5 3 C-2 1 -2 1 0 0 Z " fill="#18191B" transform="translate(486,194)"/>
</svg>
