<?xml version="1.0" encoding="UTF-8"?>
<svg version="1.1" xmlns="http://www.w3.org/2000/svg" width="1254" height="1254">
<path d="M0 0 C413.82 0 827.64 0 1254 0 C1254 413.82 1254 827.64 1254 1254 C840.18 1254 426.36 1254 0 1254 C0 840.18 0 426.36 0 0 Z " fill="#1C1C1B" transform="translate(0,0)"/>
<path d="M0 0 C1.10996338 0.00215515 2.21992676 0.0043103 3.36352539 0.00653076 C20.66850533 0.06020934 37.62136281 0.65185323 54.75 3.3125 C55.44289124 3.41902893 56.13578247 3.52555786 56.84967041 3.63531494 C76.66846212 6.69392804 96.17374978 10.2261635 115.375 16.125 C116.19347412 16.37435303 117.01194824 16.62370605 117.85522461 16.88061523 C119.58800002 17.41076959 121.32001093 17.94342878 123.05126953 18.47851562 C124.90283055 19.05070058 126.75542846 19.61953776 128.60888672 20.18554688 C148.32056067 26.2141465 148.32056067 26.2141465 155.94140625 29.9453125 C158.96151511 31.41546285 162.02176784 32.7603728 165.10009766 34.10302734 C174.47749787 38.20306884 183.68247522 42.5664751 192.75 47.3125 C193.91402344 47.92134033 193.91402344 47.92134033 195.1015625 48.54248047 C211.23901099 57.04986155 226.16153955 66.86273561 240.875 77.625 C241.64465088 78.18743408 242.41430176 78.74986816 243.20727539 79.3293457 C247.64104913 82.61586175 251.84564313 86.06938202 255.96777344 89.73852539 C258.18716943 91.69858648 260.4914528 93.53703254 262.8125 95.375 C277.4076837 107.27259112 291.74264042 120.70712524 303.890625 135.109375 C305.48297393 136.99610776 307.10064891 138.85237256 308.734375 140.703125 C314.97431292 147.78997689 320.98172661 154.94442382 326.51318359 162.60742188 C327.91873441 164.54511768 329.34407713 166.46752714 330.76953125 168.390625 C348.7040395 192.71915189 363.24098318 218.81648969 375.75 246.3125 C376.19182617 247.28123047 376.19182617 247.28123047 376.64257812 248.26953125 C391.36160099 280.82871918 400.9724244 315.95069909 405.75 351.3125 C405.97429687 352.85623291 405.97429687 352.85623291 406.203125 354.43115234 C412.0155701 395.95130168 411.61968873 441.98311762 404.75 483.3125 C404.55744629 484.49682617 404.36489258 485.68115234 404.16650391 486.90136719 C402.90944764 494.42270136 401.41952826 501.87252799 399.75 509.3125 C399.53118164 510.30040527 399.31236328 511.28831055 399.08691406 512.30615234 C385.13751864 574.22810575 355.29207571 633.63459658 315.12109375 682.63720703 C313.84353288 684.19821534 312.57754434 685.7686749 311.3125 687.33984375 C306.96468305 692.72177688 302.47213429 697.92664152 297.79296875 703.0234375 C295.68471683 705.38564711 293.72348026 707.83742685 291.75 710.3125 C290.10697047 712.00247323 288.43528688 713.66466394 286.75 715.3125 C286.07710937 715.99570312 285.40421875 716.67890625 284.7109375 717.3828125 C280.61002359 721.54009636 276.45035489 725.53088531 272.01171875 729.32421875 C269.76186005 731.30207381 267.59250604 733.35278447 265.421875 735.41674805 C257.35112515 743.04306795 248.6994785 749.75246467 239.75 756.3125 C239.03231445 756.83908203 238.31462891 757.36566406 237.57519531 757.90820312 C228.53101328 764.50436661 219.31247637 770.60313706 209.62597656 776.21044922 C207.75063622 777.31212625 205.90159275 778.44904229 204.0546875 779.59765625 C171.48427899 799.65653827 134.58628899 814.14814041 97.4375 822.9375 C96.63494781 823.12982208 95.83239563 823.32214417 95.00552368 823.52029419 C63.01037783 831.18707578 32.40323126 834.53547609 -0.5 834.5 C-1.70541443 834.49873108 -2.91082886 834.49746216 -4.152771 834.49615479 C-52.95483068 834.39807893 -101.47275072 828.20055765 -147.25 810.3125 C-148.34699219 809.88710938 -149.44398438 809.46171875 -150.57421875 809.0234375 C-154.47489389 807.47404041 -158.36428812 805.89897408 -162.25 804.3125 C-163.02005371 804.00070801 -163.79010742 803.68891602 -164.58349609 803.36767578 C-192.61266473 791.95422988 -218.90810501 777.30465757 -243.25 759.3125 C-244.28253906 758.57 -245.31507813 757.8275 -246.37890625 757.0625 C-270.99658614 739.35989873 -295.55619648 718.52551683 -315.34375 695.5 C-317.55945648 692.95738601 -319.84098592 690.48139802 -322.125 688 C-337.16793152 671.4460094 -350.50564488 653.33564376 -362.25 634.3125 C-362.72501953 633.5503418 -363.20003906 632.78818359 -363.68945312 632.00292969 C-375.98753722 612.21095377 -386.53625929 591.85632909 -395.11376953 570.18212891 C-396.19467949 567.45221579 -397.29725041 564.73190933 -398.40234375 562.01171875 C-406.26412846 542.36004946 -411.46291673 521.95856218 -415.6484375 501.24023438 C-416.25808586 498.27314707 -416.90826133 495.31691862 -417.5625 492.359375 C-426.16558737 452.32180771 -427.69261507 407.88056357 -422.25 367.3125 C-422.08870605 366.1044873 -421.92741211 364.89647461 -421.76123047 363.65185547 C-417.64920667 333.50155786 -412.27442438 301.47032139 -399.29003906 273.71191406 C-398.01485849 270.77001861 -396.99891246 267.77190189 -395.9609375 264.73828125 C-393.13770414 256.71905139 -389.6053453 249.13229343 -385.875 241.5 C-385.35826218 240.43540558 -385.35826218 240.43540558 -384.83108521 239.3493042 C-378.0874023 225.49882742 -370.50112915 212.32616017 -362.25 199.3125 C-361.33347656 197.85589966 -361.33347656 197.85589966 -360.3984375 196.36987305 C-357.50201187 191.78425015 -354.59986664 187.23931952 -351.375 182.875 C-350.70726562 181.97007812 -350.03953125 181.06515625 -349.3515625 180.1328125 C-348.65804687 179.20210937 -347.96453125 178.27140625 -347.25 177.3125 C-346.51523437 176.31992187 -345.78046875 175.32734375 -345.0234375 174.3046875 C-330.42101754 154.6842538 -314.50051173 136.36428836 -297.1784668 119.1105957 C-295.54943428 117.48697771 -293.92589272 115.85800397 -292.30273438 114.22851562 C-286.79102776 108.7130415 -281.2066674 103.35039684 -275.25 98.3125 C-274.27417969 97.45527344 -273.29835938 96.59804688 -272.29296875 95.71484375 C-234.53656918 63.12347832 -189.58630263 37.84444211 -142.25 22.3125 C-140.89793457 21.86197266 -140.89793457 21.86197266 -139.51855469 21.40234375 C-128.26936707 17.66174432 -117.0559284 14.32195563 -105.46972656 11.81152344 C-103.1021062 11.27925155 -100.7515214 10.69469139 -98.3984375 10.1015625 C-87.65232567 7.44163383 -76.91675615 5.55239864 -65.9375 4.125 C-64.16318604 3.89296875 -64.16318604 3.89296875 -62.35302734 3.65625 C-41.59906114 1.10464651 -20.90528778 -0.07394433 0 0 Z " fill="#6F6F6F" transform="translate(638.25,176.6875)"/>
<path d="M0 0 C4.40537041 3.66720206 8.31225536 7.3239485 11.93359375 11.77734375 C13.73624548 13.71630185 15.55736445 15.38109886 17.5625 17.1015625 C22.81040552 21.63178508 27.67291245 26.52697203 32.5625 31.4375 C33.46935547 32.34048828 34.37621094 33.24347656 35.31054688 34.17382812 C36.19935547 35.06392578 37.08816406 35.95402344 38.00390625 36.87109375 C39.19222046 38.06109985 39.19222046 38.06109985 40.40454102 39.27514648 C42.38468015 41.35400387 44.25943176 43.4504983 46.12514496 45.62781906 C50.09404414 50.17372399 54.30994444 54.4315442 58.59313965 58.67974854 C59.85273648 59.93533526 59.85273648 59.93533526 61.13777971 61.21628737 C63.44800336 63.51824219 65.76046968 65.81791566 68.0738883 68.11665869 C70.5760373 70.60411735 73.07515609 73.0946169 75.57455444 75.58483887 C79.33979085 79.335726 83.10597816 83.08565408 86.87329882 86.83444783 C94.2678244 94.19262442 101.65608547 101.5570625 109.04211426 108.92376709 C110.20648315 110.08502578 111.37085577 111.24628072 112.53523207 112.40753198 C114.29922033 114.16679501 116.06320509 115.92606155 117.82717523 117.68534274 C124.46447116 124.30494406 131.10246614 130.92384393 137.74121094 137.54199219 C138.34760015 138.14650435 138.95398936 138.75101651 139.57875401 139.37384722 C149.42834659 149.19248017 159.28526405 159.00373179 169.14440459 168.81277612 C179.2707699 178.88812223 189.38762419 188.97294932 199.49605799 199.06628585 C205.73062338 205.29086981 211.97279701 211.50762309 218.22486085 217.714632 C222.50127084 221.96156362 226.76858385 226.21749318 231.02873117 230.48073748 C233.48913009 232.94235908 235.95350016 235.39964449 238.42882919 237.84626007 C241.10506112 240.49558687 243.76566057 243.1596616 246.42272949 245.82818604 C247.21462095 246.60483116 248.0065124 247.38147629 248.82240057 248.18165612 C249.52670533 248.89529942 250.23101008 249.60894272 250.95665741 250.34421158 C251.8810906 251.26498375 251.8810906 251.26498375 252.8241992 252.20435739 C254 254 254 254 253.85036516 256.06857467 C252.42715732 259.30109147 249.67015729 261.24093418 247 263.4375 C246.37988037 263.95683105 245.75976074 264.47616211 245.12084961 265.01123047 C228.97266869 278.40963433 212.01218633 290.32905257 193.89160156 300.89550781 C192.63829388 301.62730491 191.38759309 302.36358647 190.13964844 303.10449219 C174.82453926 312.18456477 158.51828387 319.39698809 142 326 C140.70832362 326.5351328 139.41665778 327.07029105 138.125 327.60546875 C118.05819478 335.7967029 97.26814583 341.02243603 76 345 C75.02595215 345.18691406 74.0519043 345.37382813 73.04833984 345.56640625 C53.55651503 349.26619845 33.85391993 351.26705983 14 351 C13.78496826 350.35377686 13.56993652 349.70755371 13.34838867 349.04174805 C3.07720073 318.35216077 -9.35521057 288.65500713 -24.07470703 259.83154297 C-24.99394203 258.01199127 -25.88902307 256.182476 -26.77734375 254.34765625 C-37.10581401 233.10305183 -49.24191919 212.85994747 -62 193 C-62.41475586 192.35224609 -62.82951172 191.70449219 -63.25683594 191.03710938 C-68.39704937 183.04535673 -74.00756622 175.40237946 -79.67578125 167.78125 C-80.88162435 166.15923097 -82.08175179 164.53296675 -83.28125 162.90625 C-89.31629754 154.77205549 -95.62677422 146.86986946 -102 139 C-102.4340918 138.46391113 -102.86818359 137.92782227 -103.31542969 137.37548828 C-107.79895358 131.84792868 -112.33865683 126.37847289 -117 121 C-115.58261511 117.74792908 -113.87473588 115.68638933 -111.3125 113.25 C-108.65973743 110.71950905 -106.20510997 108.10342297 -103.81958008 105.32397461 C-100.2124147 101.18803108 -96.41808012 97.28974185 -92.5234375 93.42578125 C-91.81189514 92.71569916 -91.10035278 92.00561707 -90.36724854 91.27401733 C-88.83573478 89.7462827 -87.30306785 88.21970338 -85.76934814 86.69418335 C-83.33649465 84.27419832 -80.90687051 81.85101157 -78.47802734 79.42700195 C-72.44766508 73.40994568 -66.41185563 67.39836313 -60.3762207 61.38659668 C-55.26619427 56.29635807 -50.15825906 51.20403807 -45.05303955 46.10897827 C-42.6694133 43.73179328 -40.2827752 41.35766133 -37.89599609 38.98364258 C-36.42270231 37.51398425 -34.94955038 36.04418368 -33.4765625 34.57421875 C-32.82077209 33.92359467 -32.16498169 33.27297058 -31.48931885 32.60263062 C-27.66692804 28.78067292 -24.03909437 24.84297626 -20.51633358 20.74273682 C-18.49263369 18.416879 -16.34722354 16.23448407 -14.16015625 14.0625 C-13.32548828 13.23105469 -12.49082031 12.39960937 -11.63085938 11.54296875 C-10.78330078 10.70378906 -9.93574219 9.86460937 -9.0625 9 C-8.18787109 8.12988281 -7.31324219 7.25976562 -6.41210938 6.36328125 C-4.27702551 4.23986451 -2.13962795 2.11883622 0 0 Z " fill="#1C1C1C" transform="translate(628,619)"/>
<path d="M0 0 C3.48654476 1.4841373 5.64191072 3.46214052 8.25 6.1875 C11.66408756 9.6794332 15.15172657 12.96186232 18.859375 16.13671875 C21.33186486 18.28886777 23.72271357 20.51980719 26.125 22.75 C31.4097439 27.57360974 36.95211685 31.97968045 42.609375 36.35546875 C45.54642327 38.63028958 48.40374578 40.98711494 51.25 43.375 C77.31965469 64.75287358 106.5780129 82.68754058 136.26806641 98.53564453 C138.85795139 99.92385991 141.43559139 101.33255775 144.01171875 102.74609375 C167.46547883 115.48017634 192.36325736 125.63769613 217.71386719 133.90991211 C221.83883369 135.25700399 225.91374477 136.68620457 229.96289062 138.24731445 C232.62103191 139.22946325 235.30878115 140.11316435 238 141 C237.19438142 157.85085523 236.20811558 174.35423991 232.48046875 190.85888672 C232.0431781 192.80758539 231.64444049 194.76483442 231.25 196.72265625 C227.25688439 216.48404089 222.14268695 236.98165466 213.29296875 255.16796875 C211.93741274 258.13708689 210.80215505 261.14102776 209.66894531 264.19995117 C205.98337214 274.09783738 201.43181989 283.29680077 196.34570312 292.54394531 C194.9676522 295.05903825 193.61490905 297.58656016 192.265625 300.1171875 C186.70600661 310.47914387 180.75844745 320.37883886 174 330 C173.36747314 330.90854736 173.36747314 330.90854736 172.72216797 331.83544922 C167.41539927 339.44671088 161.87045533 346.81192744 156 354 C153.91825612 356.62187203 151.83917793 359.24582586 149.76171875 361.87109375 C148.25295427 363.69432355 146.70806922 365.36550915 145 367 C142.16973899 365.71120011 140.11183769 364.36210133 137.91532516 362.16700745 C137.32911731 361.58601508 136.74290945 361.00502272 136.13893771 360.40642452 C135.50469166 359.76771703 134.87044561 359.12900953 134.21697998 358.47094727 C133.53569259 357.79277986 132.8544052 357.11461245 132.15247273 356.41589451 C129.86606483 354.13747731 127.58688786 351.85196172 125.30761719 349.56640625 C123.67199496 347.93349335 122.03594739 346.30100638 120.39950562 344.66891479 C115.95303557 340.23157647 111.51293199 335.78791803 107.07419491 331.34284592 C102.43536601 326.69896281 97.79167008 322.05995077 93.14874268 317.42016602 C84.85422626 309.12992366 76.56516857 300.83424214 68.27787533 292.53678 C60.75773031 285.00769351 53.23234853 277.48387462 45.703125 269.96386719 C36.96379337 261.23522784 28.22781723 252.50325267 19.49678922 243.76630688 C14.8733512 239.13974364 10.24855549 234.51455936 5.62026215 229.89285278 C1.27214324 225.55048984 -3.0710948 221.2033046 -7.41053391 216.85226822 C-9.00844493 215.25170154 -10.60808096 213.65285497 -12.20951462 212.05581284 C-14.38595232 209.88479619 -16.55620529 207.70778549 -18.72491455 205.52905273 C-19.36808349 204.89034524 -20.01125243 204.25163774 -20.67391133 203.59357548 C-25 199.22830029 -25 199.22830029 -25 197 C-25.53109375 196.79375 -26.0621875 196.5875 -26.609375 196.375 C-30.00773436 194.42038808 -32.51055928 191.77876283 -35.25 189 C-35.80429687 188.4534375 -36.35859375 187.906875 -36.9296875 187.34375 C-41 183.2533867 -41 183.2533867 -41 181 C-41.80630859 180.68482422 -41.80630859 180.68482422 -42.62890625 180.36328125 C-45.90338288 178.48059205 -48.3317159 175.87786636 -50.9375 173.1875 C-51.44990234 172.66607422 -51.96230469 172.14464844 -52.49023438 171.60742188 C-53.50789697 170.57165601 -54.52339468 169.53375826 -55.53662109 168.49365234 C-56.9187366 167.08294453 -58.32014784 165.69121642 -59.72265625 164.30078125 C-62.32810293 161.66852036 -64.62958131 158.84450243 -67 156 C-69.65861526 153.20145762 -72.40679385 150.64554572 -75.375 148.1875 C-77.80540666 146.13034534 -79.90870641 144.02341184 -81.94921875 141.58203125 C-87.13214224 135.58506123 -92.8143941 130.07915595 -98.4375 124.5 C-99.5620833 123.38044368 -100.68643405 122.26065371 -101.81054688 121.140625 C-104.53769344 118.42438466 -107.26795907 115.71131708 -110 113 C-103.84005194 105.7092768 -103.84005194 105.7092768 -100.5625 102.5625 C-98.16581941 100.21574935 -95.9248585 97.80046074 -93.74658203 95.25048828 C-90.16265226 91.12973239 -86.37727478 87.2650333 -82.4921875 83.4296875 C-81.80367706 82.74496368 -81.11516663 82.06023987 -80.40579224 81.35476685 C-78.23130446 79.19236761 -76.05358333 77.03327245 -73.875 74.875 C-70.99445094 72.02117572 -68.11732205 69.16396552 -65.2421875 66.3046875 C-64.58999237 65.66079071 -63.93779724 65.01689392 -63.26583862 64.35348511 C-59.61354463 60.72072242 -56.2534052 56.99309484 -53 53 C-51.35225555 51.31462354 -49.68424871 49.64889716 -48 48 C-46.91078676 46.89125836 -45.82367088 45.78045374 -44.73828125 44.66796875 C-43.59641694 43.50775071 -42.45448901 42.34759529 -41.3125 41.1875 C-40.44141602 40.2912793 -40.44141602 40.2912793 -39.55273438 39.37695312 C-38.07274424 37.87985327 -36.54017218 36.43511269 -35 35 C-34.34 35 -33.68 35 -33 35 C-32.7831958 34.45794922 -32.5663916 33.91589844 -32.34301758 33.35742188 C-30.53820179 30.18939764 -28.08642254 27.82043291 -25.51171875 25.28125 C-24.97150589 24.74149536 -24.43129303 24.20174072 -23.87471008 23.64562988 C-22.73304768 22.50698222 -21.58896212 21.37075963 -20.44262695 20.23681641 C-18.69883333 18.51121509 -16.9631113 16.77781064 -15.22851562 15.04296875 C-14.11505265 13.93442423 -13.00113494 12.82633625 -11.88671875 11.71875 C-11.3719548 11.20509888 -10.85719086 10.69144775 -10.326828 10.16223145 C-8.03120046 7.89627007 -5.72008792 5.77725907 -3.19458008 3.76757812 C-0.91979084 2.18629689 -0.91979084 2.18629689 0 0 Z " fill="#1C1C1C" transform="translate(768,476)"/>
<path d="M0 0 C3.42280517 1.46582015 5.56480483 3.38062255 8.125 6.0625 C10.77905 8.91571933 10.77905 8.91571933 14 11 C14 11.66 14 12.32 14 13 C14.66 13 15.32 13 16 13 C16.53625 13.680625 17.0725 14.36125 17.625 15.0625 C19.5640769 17.46083196 21.28438587 19.18537694 23.60896301 21.1512146 C28.15257988 25.08053074 32.39554715 29.26193492 36.6315918 33.51806641 C37.45378204 34.34011063 38.27597229 35.16215485 39.12307739 36.0091095 C41.81750409 38.70422807 44.50837843 41.40286364 47.19921875 44.1015625 C49.08130883 45.98552017 50.96359593 47.86927892 52.84614563 49.7527771 C57.28309838 54.19282547 61.71749977 58.63541274 66.1509636 63.07894456 C71.18228627 68.12144676 76.2164476 73.16111087 81.2508558 78.2005322 C89.8602934 86.81863724 98.46763176 95.4388349 107.07255554 104.06144714 C108.13832825 105.12938759 108.13832825 105.12938759 109.22563171 106.21890259 C109.88120749 106.87648182 110.53678326 107.53406105 111.21222496 108.21156693 C112.31911091 109.31886029 113.42869567 110.42347175 114.54255104 111.52375412 C116.57173689 113.52959802 118.4064158 115.51092272 120.1875 117.75 C121.80309077 120.07487388 121.80309077 120.07487388 124 121 C124 121.66 124 122.32 124 123 C124.5775 123.226875 125.155 123.45375 125.75 123.6875 C128.57914534 125.33783478 129.98274596 127.43258577 132 130 C133.65002828 131.35386936 135.3174387 132.68678142 137 134 C139.8125 136.625 139.8125 136.625 142 139 C142 139.66 142 140.32 142 141 C142.66 141 143.32 141 144 141 C145.33203125 142.35546875 145.33203125 142.35546875 146.8125 144.1875 C150.04947663 148.08444273 153.33209234 151.72712311 157.375 154.8125 C159.601968 156.66830667 161.28193721 158.41603889 163.14393616 160.60949707 C167.01832649 165.07990174 171.13026696 169.26411415 175.32202148 173.43554688 C176.12283646 174.23650787 176.92365143 175.03746887 177.74873352 175.86270142 C180.37048772 178.4837644 182.99575562 181.10127722 185.62109375 183.71875 C187.44976813 185.54555739 189.27822044 187.37258712 191.10646057 189.1998291 C195.41096186 193.50091512 199.71768034 197.79976911 204.02550608 202.09752512 C208.93446225 206.99525807 213.8405391 211.89587099 218.74639022 216.79671383 C228.82775267 226.86765692 238.9126803 236.93502403 249 247 C246.40474881 252.06214358 242.61089593 255.64982277 238.61035156 259.60083008 C237.86037903 260.34948837 237.11040649 261.09814667 236.33770752 261.86949158 C233.85991247 264.34080174 231.37521894 266.80505829 228.890625 269.26953125 C227.16239376 270.99148853 225.43467903 272.71396435 223.7074585 274.43693542 C219.1572597 278.97383175 214.60153434 283.50513431 210.04418945 288.03485107 C202.76309987 295.27283941 195.48863428 302.51746858 188.21752167 309.76547813 C185.6835683 312.28926032 183.14619861 314.80956938 180.60845947 317.32954407 C179.04126339 318.88990587 177.47417991 320.45038077 175.90722656 322.01098633 C175.20774902 322.7037265 174.50827148 323.39646667 173.78759766 324.11019897 C169.79542156 328.0932293 166.0462329 332.18612484 162.44857407 336.53086376 C161.97054462 337.01567872 161.49251518 337.50049368 161 338 C160.34 338 159.68 338 159 338 C158.67346436 338.81549316 158.67346436 338.81549316 158.34033203 339.64746094 C156.54913222 342.79135918 154.11723419 345.12947667 151.5546875 347.640625 C151.02481232 348.16767029 150.49493713 348.69471558 149.94900513 349.23773193 C148.26232175 350.91325675 146.56880436 352.58167722 144.875 354.25 C143.72740612 355.38755851 142.58026539 356.52557436 141.43359375 357.6640625 C138.62761863 360.44803465 135.81549536 363.2256576 133 366 C129.84812633 364.50410556 127.78334055 362.97845843 125.375 360.4375 C122.95478041 357.85984611 122.95478041 357.85984611 120 356 C120 355.34 120 354.68 120 354 C119.40703125 353.73574219 118.8140625 353.47148438 118.203125 353.19921875 C115.91970946 351.95629575 114.52573277 350.69598354 112.75 348.8125 C109.01357212 344.97381199 105.06505735 341.48527607 101 338 C99.9566862 337.09284461 98.91374621 336.18525919 97.87109375 335.27734375 C79.91800301 319.69599523 60.99059625 304.87199368 41 292 C39.5563662 291.04306136 38.11374526 290.0845938 36.671875 289.125 C17.29792617 276.29096326 -2.76653428 264.81876166 -23.47705078 254.28710938 C-25.70981725 253.14803981 -27.93261671 251.99232132 -30.15234375 250.828125 C-50.57944465 240.2131231 -72.2949633 232.52705889 -94 225 C-94.86740712 207.5362034 -92.31907117 191.11771663 -89 174 C-88.68772461 172.36853027 -88.68772461 172.36853027 -88.36914062 170.70410156 C-85.85021791 157.75488238 -82.51740559 145.38569684 -78 133 C-77.41629639 131.37215576 -77.41629639 131.37215576 -76.82080078 129.71142578 C-75.51569677 126.07468134 -74.19794726 122.44278941 -72.875 118.8125 C-72.45516846 117.65331055 -72.03533691 116.49412109 -71.6027832 115.29980469 C-69.46491555 109.51602996 -67.18973705 104.27029988 -64 99 C-63.35579107 97.47463174 -62.74650674 95.93360994 -62.1875 94.375 C-59.9547983 88.6386741 -57.0747956 83.35209804 -54.08642578 77.97851562 C-52.88714133 75.79447041 -51.72214048 73.59390806 -50.55859375 71.390625 C-41.78644348 54.91336146 -31.37942875 39.77688409 -20 25 C-19.19207808 23.93537382 -18.38480905 22.87025193 -17.578125 21.8046875 C-11.92171636 14.35937766 -6.04277274 7.13561462 0 0 Z " fill="#1C1C1C" transform="translate(351,343)"/>
<path d="M0 0 C2.38975866 7.08112915 4.76966684 14.15956526 6.9375 21.3125 C8.54689521 26.58197143 10.21761561 31.82823621 11.9375 37.0625 C12.16622803 37.76995361 12.39495605 38.47740723 12.63061523 39.20629883 C22.29123529 68.37438783 36.72228674 97.5901274 52.67578125 123.80908203 C54.10468147 126.17319535 55.50699854 128.55182041 56.90625 130.93359375 C63.19476461 141.60093632 69.83174425 151.90499657 77 162 C77.82966333 163.17952136 78.65909499 164.35920572 79.48828125 165.5390625 C90.32531038 180.89385771 101.74308957 195.69765179 113.9375 210 C114.43983154 210.58974609 114.94216309 211.17949219 115.4597168 211.78710938 C117.91945655 214.65344059 120.41267375 217.4653358 123.0234375 220.1953125 C123.49402588 220.69160156 123.96461426 221.18789063 124.44946289 221.69921875 C125.73283875 223.04167173 127.03195152 224.36902961 128.33203125 225.6953125 C130 228 130 228 129.81292725 229.91407776 C128.82593752 232.44663383 127.59232468 233.76892743 125.66113281 235.67944336 C124.95659973 236.38374985 124.25206665 237.08805634 123.52618408 237.81370544 C122.75957458 238.56483109 121.99296509 239.31595673 121.203125 240.08984375 C120.4173407 240.87138321 119.6315564 241.65292267 118.82196045 242.45814514 C116.30492226 244.95838623 113.77768054 247.448023 111.25 249.9375 C109.5618139 251.61063613 107.87430565 253.28445652 106.1875 254.95898438 C103.08133668 258.04064841 99.9713407 261.11832503 96.85644531 264.19116211 C90.72209132 270.15252446 90.72209132 270.15252446 85 276.5 C81.49641648 280.62763148 77.79484819 284.35774827 73.625 287.8125 C71.1432613 289.91133236 68.99619378 292.07748729 66.90405273 294.5625 C62.47870315 299.67897039 57.70521119 304.41980845 52.91015625 309.1875 C51.95587007 310.13991612 51.00180812 311.09255695 50.04795837 312.04541016 C47.5629203 314.52666925 45.07489204 317.00490791 42.58618164 319.48248291 C40.03672504 322.02162485 37.49017312 324.56367646 34.94335938 327.10546875 C29.96504369 332.07312882 24.98355629 337.03759686 20 342 C17.05567009 340.67213395 14.98118244 339.22941989 12.70533752 336.94584656 C12.07600311 336.31926147 11.4466687 335.69267639 10.79826355 335.04710388 C9.77965996 334.01771446 9.77965996 334.01771446 8.74047852 332.9675293 C8.01640808 332.24375092 7.29233765 331.51997253 6.54632568 330.77426147 C4.15241515 328.3789571 1.76567085 325.97664193 -0.62109375 323.57421875 C-2.28448009 321.90710058 -3.94830981 320.24042469 -5.61256409 318.57417297 C-9.99626213 314.18283618 -14.37392608 309.78553143 -18.75036621 305.38696289 C-23.19522254 300.92171268 -27.64568016 296.46205329 -32.09570312 292.00195312 C-39.28850351 284.79156596 -46.47782722 277.57773393 -53.66273499 270.35948181 C-60.02430726 263.95046061 -60.02430726 263.95046061 -66.45703125 257.61328125 C-67.23433594 256.85402344 -68.01164063 256.09476562 -68.8125 255.3125 C-69.60269531 254.54550781 -70.39289063 253.77851563 -71.20703125 252.98828125 C-73 251 -73 251 -73 249 C-73.66 249 -74.32 249 -75 249 C-78.35554573 245.90936578 -81.15743072 242.5532116 -84 239 C-87.12326803 235.69301032 -90.46904913 232.69608993 -93.875 229.6875 C-97.65011385 226.3194516 -100.97078238 222.82883505 -104.22265625 218.96484375 C-106.85941429 216.04992223 -109.83896686 213.57155319 -112.80859375 211.00390625 C-115.54323053 208.50324909 -117.86741268 205.76100992 -120.25390625 202.93359375 C-122.05437309 200.93978819 -123.95054648 199.23475816 -126 197.5 C-129.44879954 194.57616224 -132.35471748 191.42237713 -135.27734375 187.98046875 C-138.02340595 184.82343125 -141.01369453 181.92710559 -144 179 C-145.66753344 177.33419314 -147.33400263 175.66734202 -149 174 C-150.20009135 172.79981263 -151.40023499 171.59967753 -152.60041809 170.39958191 C-177.73361206 145.26638794 -202.86680603 120.13319397 -228 95 C-223.18203998 84.66089625 -209.95772585 76.76568092 -201 70 C-200.32050293 69.4853418 -199.64100586 68.97068359 -198.94091797 68.44042969 C-143.28263316 26.55970519 -70.23542503 -1.3392348 0 0 Z " fill="#1C1C1C" transform="translate(611,218)"/>
<path d="M0 0 C10.36744656 4.8311676 18.19143633 18.04577982 25 27 C25.44988281 27.58765137 25.89976562 28.17530273 26.36328125 28.78076172 C44.38604696 52.41941084 60.40948037 79.16643218 71 107 C71.5150647 108.28199982 72.03217471 109.56317887 72.55078125 110.84375 C80.4174083 130.41134537 86.2868333 150.45365868 91 171 C91.15952148 171.69125977 91.31904297 172.38251953 91.48339844 173.09472656 C93.71139205 183.02895692 94.882073 193.16263556 96.1875 203.25 C96.27839905 203.93795654 96.3692981 204.62591309 96.46295166 205.3347168 C97.58706954 213.91702782 98.26657239 222.33486515 98 231 C93.9293662 230.41746406 90.292896 229.51781811 86.4453125 228.07421875 C85.41792969 227.68943359 84.39054688 227.30464844 83.33203125 226.90820312 C82.27371094 226.50537109 81.21539063 226.10253906 80.125 225.6875 C78.54912109 225.1006543 78.54912109 225.1006543 76.94140625 224.50195312 C71.79983029 222.56179649 66.84577712 220.5093081 61.97363281 217.97021484 C59.7639812 216.88397591 57.52054859 215.98396358 55.2265625 215.08984375 C21.7568688 201.96609996 -9.75403262 182.72741757 -39 162 C-39.62084473 161.56316895 -40.24168945 161.12633789 -40.88134766 160.67626953 C-53.03190566 152.12657511 -64.58417682 142.94629042 -76.08886719 133.55419922 C-77.78469006 132.17509748 -79.48748706 130.80559055 -81.1953125 129.44140625 C-86.10749437 125.49387291 -90.69875977 121.445843 -95.08203125 116.91796875 C-97.70053116 114.29946884 -100.4998618 111.92143064 -103.3359375 109.54296875 C-105 108 -105 108 -107 105 C-104.17097124 102.14153993 -101.33599221 99.28905016 -98.5 96.4375 C-97.31277344 95.23770508 -97.31277344 95.23770508 -96.1015625 94.01367188 C-92.55916951 90.45676088 -89.02011638 86.95729431 -85.19921875 83.69921875 C-79.25574073 78.59114853 -73.8289665 72.9340182 -68.3125 67.375 C-67.18708543 66.24455619 -66.06143588 65.11434628 -64.93554688 63.984375 C-62.86744253 61.90817762 -60.80071208 59.8306341 -58.7355957 57.75146484 C-57.83284912 56.84348145 -56.93010254 55.93549805 -56 55 C-55.26418701 54.24283691 -54.52837402 53.48567383 -53.77026367 52.70556641 C-51.3366581 50.32879573 -48.84893818 48.06438232 -46.30908203 45.80297852 C-41.04500171 41.09055689 -36.03429712 36.16236134 -31.0546875 31.15234375 C-30.15879913 30.25504044 -29.26291077 29.35773712 -28.33987427 28.4332428 C-25.99386207 26.08262937 -23.65003495 23.72986731 -21.30731201 21.37597656 C-18.90205934 18.96037188 -16.49386333 16.54770514 -14.0859375 14.13476562 C-9.38795384 9.42583438 -4.69284615 4.71405094 0 0 Z " fill="#1C1C1C" transform="translate(908,341)"/>
<path d="M0 0 C16.69510831 -0.14832771 32.86262649 2.33753439 49.25 5.3125 C50.44984024 5.52629807 50.44984024 5.52629807 51.67391968 5.74441528 C62.35751409 7.6615556 72.67641031 10.1789494 83.03903198 13.40473938 C85.83682805 14.2540229 88.65391612 15.02848124 91.47267151 15.80480957 C130.2825983 26.51419281 168.50780202 47.18683453 200 72 C201.36125 73.05960938 201.36125 73.05960938 202.75 74.140625 C209.64838018 79.57973245 216.31629747 85.30104361 223 91 C221.37724852 95.07637122 218.46284177 97.82612042 215.40625 100.859375 C214.85892212 101.40861633 214.31159424 101.95785767 213.74768066 102.52374268 C212.5935222 103.67925859 211.43684833 104.83226685 210.27783203 105.98291016 C208.49926054 107.750735 206.73165237 109.5290213 204.96484375 111.30859375 C203.84178692 112.43032971 202.71811024 113.55144551 201.59375 114.671875 C201.0635022 115.20617126 200.53325439 115.74046753 199.98693848 116.29095459 C196.22993854 120 196.22993854 120 194 120 C193.7412056 120.58411148 193.48241119 121.16822296 193.21577454 121.77003479 C191.90524831 124.17379288 190.48751278 125.75343374 188.54760742 127.67944336 C187.4909211 128.73590309 187.4909211 128.73590309 186.41288757 129.81370544 C185.65143936 130.56483109 184.88999115 131.31595673 184.10546875 132.08984375 C183.3210994 132.87138321 182.53673004 133.65292267 181.72859192 134.45814514 C179.21955151 136.95599818 176.70366023 139.44682109 174.1875 141.9375 C172.50409855 143.61086676 170.82115052 145.28468979 169.13867188 146.95898438 C166.04211176 150.03921921 162.94297882 153.11681214 159.84057617 156.19116211 C156.88593143 159.1197399 153.93903918 162.05574668 151 165 C149.77052379 166.22967092 148.54093927 167.45923354 147.3112793 168.6887207 C146.63095139 169.36904861 145.95062347 170.04937653 145.24967957 170.75032043 C131.12483978 184.87516022 131.12483978 184.87516022 117 199 C113.31133708 197.295623 111.51800159 195.47380507 109 192.25 C105.9563622 188.41801012 102.86626784 184.66684761 99.64233398 180.9855957 C93.44291893 173.89442248 87.81550635 166.50820046 82.33691406 158.8515625 C81.05320084 157.07368064 79.74732987 155.31533623 78.4296875 153.5625 C47.79170751 112.70993853 23.4416146 67.86162919 5.875 19.9375 C5.35486328 18.5443457 5.35486328 18.5443457 4.82421875 17.12304688 C2.74891356 11.45770223 1.17535978 5.91920877 0 0 Z " fill="#1C1C1C" transform="translate(656,218)"/>
<path d="M0 0 C4.81810181 0.5313195 8.71269604 1.50948693 13.125 3.5 C14.35639133 4.04902905 15.58818881 4.59714773 16.8203125 5.14453125 C17.48708008 5.44311035 18.15384766 5.74168945 18.84082031 6.04931641 C21.15053179 7.06627892 23.47462675 8.0423212 25.8046875 9.01171875 C67.26984888 26.31723037 105.55714328 49.90886576 140.98632812 77.43603516 C142.92976892 78.94545341 144.87859598 80.44767735 146.828125 81.94921875 C152.97287818 86.704702 158.88901719 91.58333647 164.6015625 96.859375 C167.98341982 99.8777102 171.55903067 102.62572336 175.1640625 105.37109375 C176.07285156 106.17740234 176.07285156 106.17740234 177 107 C177 107.66 177 108.32 177 109 C177.5465625 109.21914063 178.093125 109.43828125 178.65625 109.6640625 C181.75622878 111.4310504 184.04323367 113.83120925 186.5 116.375 C186.97308594 116.85710937 187.44617188 117.33921875 187.93359375 117.8359375 C189.29219978 119.22088769 190.6461937 120.61035765 192 122 C193.33111297 123.33555001 194.66351831 124.66982247 196 126 C194.49158187 129.55480003 192.42366339 131.79559622 189.67578125 134.484375 C188.37930664 135.76441406 188.37930664 135.76441406 187.05664062 137.0703125 C185.69829102 138.39675781 185.69829102 138.39675781 184.3125 139.75 C182.53530838 141.49229404 180.76052859 143.23705193 178.98828125 144.984375 C178.19977783 145.75491211 177.41127441 146.52544922 176.59887695 147.31933594 C174.5607094 149.42164498 172.64214142 151.54517719 170.73291016 153.76049805 C166.77608281 158.32048992 162.55842097 162.58562571 158.28515625 166.84765625 C157.47058456 167.66318466 156.65601288 168.47871307 155.8167572 169.31895447 C154.10440807 171.03198008 152.39081158 172.74375965 150.67602539 174.4543457 C148.06997985 177.05503552 145.46931478 179.66101956 142.86914062 182.26757812 C141.19563301 183.94042486 139.52181518 185.61296134 137.84765625 187.28515625 C137.0797023 188.05513443 136.31174835 188.82511261 135.52052307 189.61842346 C131.41378157 193.70761443 127.21482227 197.61160959 122.82533264 201.39482117 C120.18936912 203.71286049 117.75097965 206.17274895 115.29296875 208.6796875 C114.28463074 209.70064483 113.27616368 210.72147472 112.26757812 211.7421875 C110.71432903 213.32042117 109.1627694 214.90025613 107.61352539 216.48242188 C106.09435396 218.03169703 104.56909669 219.57476897 103.04296875 221.1171875 C101.69755005 222.48786377 101.69755005 222.48786377 100.32495117 223.88623047 C98 226 98 226 95 227 C78.17122356 210.69712282 64.14442364 190.97417604 52 171 C51.58572754 170.31953613 51.17145508 169.63907227 50.74462891 168.93798828 C39.43720073 150.21228438 29.58019803 130.75861002 21.86279297 110.28125 C21.02092796 108.05533415 20.15625768 105.83961365 19.28515625 103.625 C16.25750277 95.85825299 13.859912 88.13194856 12 80 C11.37566885 77.60399228 10.75060634 75.20817508 10.125 72.8125 C4.10126177 48.9723187 -0.81298532 24.66055483 0 0 Z " fill="#1C1C1C" transform="translate(257,614)"/>
<path d="M0 0 C3.71563534 1.23854511 4.59458591 2.69017178 7 5.75 C7.79535156 6.74773438 8.59070313 7.74546875 9.41015625 8.7734375 C9.83184082 9.30291992 10.25352539 9.83240234 10.68798828 10.37792969 C12.4370351 12.54031656 14.24314925 14.65055067 16.05371094 16.76147461 C53.74946099 60.71546404 84.9261356 113.85887985 106.10424805 167.72436523 C106.91447793 169.78273337 107.74883545 171.82840956 108.59765625 173.87109375 C111.58549139 181.14547637 114.13118353 188.34972788 116 196 C105.12068898 195.55603875 94.68499981 194.30055554 84 192.1875 C82.58908419 191.91532736 81.1781136 191.64343862 79.76708984 191.37182617 C70.42838532 189.55715116 61.15905094 187.58690752 52 185 C51.04867187 184.73445312 50.09734375 184.46890625 49.1171875 184.1953125 C44.705844 182.91799811 40.43000437 181.42061553 36.13671875 179.79614258 C33.3931808 178.77389883 30.62975173 177.81525313 27.86303711 176.85791016 C15.86876193 172.69767745 4.42842912 167.8515854 -6.87890625 162.0859375 C-9.51628833 160.74153555 -12.16563929 159.43357193 -14.83984375 158.1640625 C-41.45109414 145.43694275 -65.77498526 127.65850079 -88.09765625 108.48828125 C-89.84304588 106.9918974 -91.59800433 105.50642476 -93.37109375 104.04296875 C-94.94983925 102.73740658 -96.48253262 101.37630762 -98 100 C-98 99.34 -98 98.68 -98 98 C-96.49609375 96.51953125 -96.49609375 96.51953125 -94.4375 94.8125 C-89.50030442 90.61193751 -84.61165468 86.41748202 -81 81 C-80.34 81 -79.68 81 -79 81 C-78.6028778 80.11531855 -78.6028778 80.11531855 -78.19773293 79.21276474 C-76.95827411 76.92291306 -75.67503159 75.42853311 -73.83627319 73.59576416 C-73.185634 72.94237564 -72.53499481 72.28898712 -71.86463928 71.61579895 C-71.15182297 70.91017319 -70.43900665 70.20454742 -69.70458984 69.47753906 C-68.95327286 68.72593002 -68.20195587 67.97432098 -67.4278717 67.19993591 C-64.94360487 64.71706229 -62.45232905 62.2413477 -59.9609375 59.765625 C-58.23700151 58.04541916 -56.51350659 56.3247712 -54.79043579 54.60369873 C-50.25415749 50.07505668 -45.71190506 45.55245285 -41.168396 41.03106689 C-36.53313047 36.41625986 -31.90352137 31.79578604 -27.2734375 27.17578125 C-18.18782914 18.11162268 -9.09609212 9.0536372 0 0 Z " fill="#1C1C1C" transform="translate(480,771)"/>
<path d="M0 0 C0 3.43344882 -0.33204625 3.73756719 -2.5546875 6.13671875 C-3.08707031 6.71357422 -3.61945312 7.29042969 -4.16796875 7.88476562 C-4.73128906 8.47966797 -5.29460938 9.07457031 -5.875 9.6875 C-6.43058594 10.29400391 -6.98617187 10.90050781 -7.55859375 11.52539062 C-8.99275882 13.06150237 -10.49222135 14.53607641 -12 16 C-12.66 16 -13.32 16 -14 16 C-14.226875 16.556875 -14.45375 17.11375 -14.6875 17.6875 C-16.69538899 21.22520917 -19.1626819 24.45278432 -23.1640625 25.64453125 C-23.76992188 25.76183594 -24.37578125 25.87914062 -25 26 C-20.03805145 20.00499003 -14.6523376 14.53572963 -9.125 9.0625 C-8.24585938 8.18787109 -7.36671875 7.31324219 -6.4609375 6.41210938 C-4.3095654 4.27242952 -2.15588208 2.13513403 0 0 Z " fill="#262626" transform="translate(760,484)"/>
<path d="M0 0 C2.1484375 0.375 2.1484375 0.375 4 1 C2.25395451 2.4630657 0.50300547 3.9202808 -1.25 5.375 C-2.22453125 6.18710937 -3.1990625 6.99921875 -4.203125 7.8359375 C-6.4552682 9.57851757 -8.40711386 10.876416 -11 12 C-3.18791946 2.68456376 -3.18791946 2.68456376 0 0 Z " fill="#242423" transform="translate(683,562)"/>
<path d="M0 0 C-0.6875 2.4375 -0.6875 2.4375 -2 5 C-4.625 5.8125 -4.625 5.8125 -7 6 C-7.66 5.01 -8.32 4.02 -9 3 C-2.25 0 -2.25 0 0 0 Z " fill="#222222" transform="translate(806,975)"/>
<path d="M0 0 C0.33 0.66 0.66 1.32 1 2 C-1.31 3.65 -3.62 5.3 -6 7 C-6.66 6.67 -7.32 6.34 -8 6 C-3.375 1.125 -3.375 1.125 0 0 Z " fill="#222222" transform="translate(422,831)"/>
<path d="M0 0 C0 3.90838866 -1.50567876 5.11594107 -4 8 C-4.99 7.67 -5.98 7.34 -7 7 C-4.69 4.69 -2.38 2.38 0 0 Z " fill="#232323" transform="translate(443,808)"/>
<path d="M0 0 C0.33 0.66 0.66 1.32 1 2 C-1.47812494 5.45167403 -2.79606135 7.23163306 -7 8 C-6.02133662 6.85373678 -5.04205413 5.70800212 -4.0625 4.5625 C-3.51722656 3.92441406 -2.97195313 3.28632812 -2.41015625 2.62890625 C-1.63204305 1.73008851 -0.84063472 0.84063472 0 0 Z " fill="#696968" transform="translate(447,747)"/>
<path d="M0 0 C-3.22515763 1.73662334 -6.51329166 2.8905928 -10 4 C-9.67 3.01 -9.34 2.02 -9 1 C-5.8035914 -0.06546953 -3.34252724 -0.07427838 0 0 Z " fill="#272725" transform="translate(766,946)"/>
<path d="M0 0 C0.66 0.66 1.32 1.32 2 2 C1.625 4.125 1.625 4.125 1 6 C0.01 5.67 -0.98 5.34 -2 5 C-2 2 -2 2 0 0 Z " fill="#6A6A68" transform="translate(917,838)"/>
</svg>
